<?xml version="1.0" encoding="utf-8"?>
<!-- Generator: Adobe Illustrator 26.0.2, SVG Export Plug-In . SVG Version: 6.00 Build 0)  -->
<svg version="1.1" id="Layer_1" xmlns="http://www.w3.org/2000/svg" xmlns:xlink="http://www.w3.org/1999/xlink" x="0px" y="0px"
	 viewBox="0 0 333 564.9" style="enable-background:new 0 0 333 564.9;" xml:space="preserve">
<style type="text/css">
	.st0{fill:none;stroke:url(#SVGID_1_);stroke-miterlimit:10;stroke-opacity:0.2;}
</style>
<linearGradient id="SVGID_1_" gradientUnits="userSpaceOnUse" x1="-469.9178" y1="637.494" x2="-115.256" y2="315.866" gradientTransform="matrix(1 0 0 -1 539 773.0154)">
	<stop  offset="0" style="stop-color:#FFFFFF"/>
	<stop  offset="1" style="stop-color:#FFFFFF;stop-opacity:0"/>
</linearGradient>
<path class="st0" d="M342.2,524.7l-19.5,2.5c-3.1-6-6.2-12-9.4-17.9l19.9-1.7c-3.9-6.8-7.7-13.6-11.5-20.4l-8.4,22.1l-8.6,13l17.9,5
	l-0.6,6.6c6-1.9,12-3.7,18-5.6L342.2,524.7z M342.2,524.7c-3-5.7-6-11.4-9-17.1l13.6-14.2c2.3,4.8,4.7,9.5,7,14.3L342.2,524.7z
	 M313.3,509.2l-21.8-14.4l-11.9,17.6c8.4,3.2,16.8,6.5,25.2,9.8l0.2,6.9c5.7,1.6,11.4,3.1,17.2,4.7c-4.1-1-8.2-2-12.3-3.1l23.9-4.6
	 M333.8,526.1c2.1,0.7,4.2,1.4,6.3,2.1l13.8-13.3l0-7.2l7.3-20.4c-2.8-4.7-5.6-9.4-8.4-14.1l-5.9,20.1l-13.8-23l-11.4,16.8
	c-5.3-5.6-10.6-11.2-15.9-16.8L315,445c6.1,8.5,12.1,16.9,18.2,25.4l9.3-15.8 M333.8,526.1l15-10.6l11.2-14l3-4.6 M333.8,526.1
	c-4.3-1.8-8.6-3.5-13-5.2l-23.2-1 M342.4,454.6c3.4,6.2,6.9,12.4,10.3,18.6l5-22.2l-11.1-19.4C345.3,439.3,343.9,447,342.4,454.6z
	 M342.4,454.6c-4.3-7.4-8.6-14.7-12.9-22.1L315,444.9c-7.9-0.5-15.8-1-23.7-1.5l-7.9-14.8l19.1-8.9l12.5,25.2 M297.5,519.9
	l-27.2-7.3 M297.5,519.9c4.1,3.6,8.2,7.3,12.3,10.9c-1.6-0.6-3.2-1.1-4.9-1.6c-8.6-2.9-17.2-5.8-25.8-8.7 M270.4,512.6l20.2-8.4
	c5.5,3,11,6.1,16.5,9.2l15.7-10.6c5.2,3.3,10.5,6.5,15.7,9.8c3.4,1,6.9,2,10.3,3c1.7-0.2,3.4-0.4,5-0.6l9.1-18 M270.4,512.6
	l-13.3,4.7 M270.4,512.6c-8.5,1.4-17,2.9-25.5,4.3 M270.4,512.6l-14.2-4.9c-5.8-1-11.6-2.1-17.4-3.1c-5.2-0.6-10.3-1.3-15.5-1.9
	l-7.9,3c-1.5,1.1-3.1,2.1-4.7,3.1l-6.5,2.4l-12.8-3.9L177.2,496 M363,496.9c-0.6-3.2-1.2-6.4-1.8-9.6l6.8-22.2
	c-3.4-4.7-6.8-9.3-10.2-14c0.6-8.4,1.2-16.8,1.8-25.2l13.4,20.4 M363,496.9l11.1-23.8 M372.8,446.2l-4.9,18.8l6.1,7.9 M372.8,446.2
	l-1.2-18.1c-4-0.8-8.1-1.5-12.1-2.3l-12.5-25.9 M372.8,446.2c3.4,2.1,6.9,4.2,10.3,6.2l-9.1,20.5 M374.1,473l-0.4,7.6l-13.7,21
	l-6.5-0.5l-15,11.6l-17.7,8.3c-4.6-2.5-9.1-5-13.7-7.5c-3.2,2.2-6.4,4.3-9.6,6.5l-11.7,3.4c8,2.5,16,5,24,7.5 M279.2,520.5
	c0.1-2.7,0.2-5.3,0.4-7.9l-23.1-9.1l20.9-22.3l14.1,13.8l14.3-24.5l-17.6-10.6l3.1-16.3c-8.4-2.5-16.8-5-25.1-7.4
	c-4.4-2.9-8.7-5.8-13.1-8.7 M279.2,520.5l-24.1-4.4l1.3-12.7l-35.7-1.7 M279.2,520.5l6.6,2.9c-9.6-2-19.2-4-28.8-6 M253,427.3
	l-13.6-11.9l25.3-6.7c6.2,6.7,12.5,13.4,18.7,20L253,427.3z M253,427.3l-32.4,4.9l-20.9,13.4l-18.1,8.1l3-4 M184.6,449.7l-2.6-7.5
	l16-9.8l2.8,8.2L184.6,449.7z M184.6,449.7l-26.9,3.9l3-8.2 M160.7,445.4l21.4-3.1c-3.4-2.4-6.8-4.9-10.2-7.3 M160.7,445.4
	l11.1-10.5 M160.7,445.4c-5.9-3.2-11.9-6.5-17.8-9.8l11.2-15.9c5.9,5.1,11.9,10.1,17.8,15.2 M171.8,435l15.7-14.2
	c3.5,3.9,7,7.8,10.5,11.7l15.7-14.5 M213.7,418l4.9,10 M213.7,418l14.7-14.1c3.7,3.8,7.3,7.6,10.9,11.4L218.6,428 M213.7,418
	c-3.3-4.7-6.5-9.3-9.8-14c-5.4,5.5-10.9,11.1-16.4,16.7c-5.6-6.4-11.3-12.8-16.9-19.3l-16.6,18.3c-4.4-4-8.9-8-13.3-12.1l-7,13.1
	c3,4.9,6.1,9.9,9.1,14.8l-2.6,9.3c5.8,2.9,11.7,5.8,17.5,8.7l-1.4,2.7 M218.6,428l-17.8,12.6l-1.1,4.9c-3,1-5.9,2.1-8.9,3.1l24-13.8
	l5.7-2.6C219.9,430.8,219.3,429.4,218.6,428z M156.4,456.4c8.4-0.9,16.8-1.7,25.2-2.6l-11,5.5l-23.1-2.2L156.4,456.4z M156.4,456.4
	l-13.6-7c-0.9-1.5-1.7-3-2.5-4.5c-3.5-5.6-7-11.1-10.5-16.7l4-7.4l-2.6-22.6c3.2,3.1,6.4,6.3,9.6,9.4l14.1-19.1
	c5.3,4.3,10.5,8.6,15.8,12.8l16.8-18.7c5.5,7.1,11,14.2,16.4,21.3l14.5-14.5c3.3,4.8,6.6,9.6,10,14.4l18.5-14
	c5.9,6.3,11.8,12.5,17.7,18.8l20-12.4c5.9,7.8,11.8,15.7,17.7,23.5l14.7-12.3c4.1,8.4,8.3,16.7,12.4,25l9-16.8l8.2,16l0.4-31.8
	 M347.1,399.9l6.1-31.3l4.6,21.1 M347.1,399.9c-0.9-4.1-1.9-8.2-2.9-12.2 M359.5,425.9l-1.7-36.2 M357.8,389.7l13.1,16.2l0.7,22.2
	l13.4-0.7l8.3-21.9c2.6,5.1,5.3,10.2,7.9,15.4l-8.6,22.9l0.4,7.6l-10.7,16.8 M357.8,389.7l8.9-29.6c3.4,7.4,6.8,14.7,10.1,22.1
	c5.5,7.8,10.9,15.5,16.4,23.3l7.4-25c2.8,6,5.6,12.1,8.4,18.1l-7.9,22.3c1.1,2.5,2.2,5.1,3.2,7.6l-11.5,22.9l-1.1,3.4L377,470.1
	 M382.2,468.2c-1.7,0.6-3.5,1.3-5.2,1.9 M382.2,468.2l2.7-6.1l7.6-18.3c-2.6-5.4-5-10.9-7.6-16.3l-1.9,25l1.8,9.6l-11.2,18.5
	c-1.5,1.3-3,2.7-4.5,4c-2.9-0.8-5.8-1.5-8.7-2.3c-6.6,3.5-13.1,7-19.7,10.5c-3.9-4.5-7.8-9.1-11.7-13.6 M382.2,468.2l-13.1,16.4
	L353.5,501c-4.3-2.8-8.5-5.5-12.8-8.3l-17.9,10.1c-5.1-3.3-10.1-6.7-15.2-10l-17.1,11.4l-16.4-7.4l-18,10.9l-21.2,9.8
	c-7.7,2.7-15.3,5.3-23,8c2.1-0.8,4.3-1.5,6.4-2.3l-24.6,6.2l7.3-3.2 M377,470.1l-16.6,12.1c-2.6-2.1-5.3-4.2-7.9-6.3 M377,470.1
	l-6.6-1.8l-17.9,7.6 M352.5,475.9l-23.4,3.3 M352.5,475.9c-3.5-1.7-7-3.4-10.5-5l-13,8.3 M329.1,479.2l-21.4,13.7
	c-5.5-2.8-11-5.5-16.4-8.3l-17,12.2c-6.6-3.2-13.3-6.4-19.9-9.6l-15.5,17.4c-5.1,5-10.2,10-15.3,15l-19.9,7.6l-26.5-1.7
	c3.4,1.1,6.8,2.1,10.2,3.2l-23.9,2.1c1.7,3,3.4,6.1,5.1,9.1l-20.6,3c2.1,2.4,4.2,4.7,6.4,7.1c-5.4-1.9-10.7-3.8-16.1-5.7l0-8.5
	l-14.4-17.7l5.2-14.2c5.2,5,10.3,10.1,15.4,15.2 M329.1,479.2c-6.6-3.6-13.2-7.3-19.8-10.9 M201.1,526.2c0.2-1.9,0.5-3.8,0.8-5.7
	 M201.1,526.2l-25,14.8 M201.1,526.2l24.2-5.4c0.1-1.8,0.2-3.5,0.3-5.3 M201.9,520.6c-3.1-3.8-6.2-7.7-9.3-11.5l28.2-7.3
	 M201.9,520.6c7.9-1.7,15.9-3.4,23.8-5 M201.9,520.6l-24.1,14 M220.8,501.7c-7.5-7-15-14-22.5-21l-20.1,13l-8.1-21.3 M220.8,501.7
	l20.3-12c5.1,4.6,10.2,9.1,15.3,13.7 M257.1,517.4l-2-1.3c-9.8-0.2-19.6-0.3-29.5-0.5 M225.6,515.5c-1.6-4.6-3.2-9.2-4.8-13.8
	 M177.7,534.6l-20.8,9 M177.7,534.6l-6.9-15 M177.7,534.6c-0.6,2.2-1.1,4.3-1.6,6.4 M157,543.5l0.3-13.9l13.5-10.1 M157,543.5
	c-0.9,2.2-1.8,4.4-2.7,6.6l21.9-9.1 M157,543.5c-6.3-2.6-12.6-5.1-18.8-7.6l6.3-16.8 M170.8,519.5c-4.8-6.5-9.5-13.1-14.3-19.6
	 M170.8,519.5l21.7-10.5c-4.8-5.1-9.5-10.2-14.3-15.3l-21.7,6.1 M156.5,499.9c-6.7-4.7-13.5-9.5-20.2-14.2
	c-5.2-4.9-10.4-9.8-15.6-14.7c-3.7-5-7.4-10-11-14.9 M176.1,541l-7.7-1l25.3-10.5c-2.2-0.2-4.4-0.5-6.6-0.7l24.8-3.2
	c-2.8,0.5-5.7,1.1-8.5,1.6l-10.9-0.3 M144.4,519.1c4.3,3.5,8.6,7,12.9,10.5 M144.4,519.1l12.1-19.3c-1-7.9-2-15.8-2.9-23.7
	c-4-2.4-8-4.9-12-7.3l5.9-11.8c-5.9-3.7-11.7-7.4-17.6-11c-0.2-3.5-0.3-7-0.4-10.5c-3.1-6.8-6.1-13.6-9.2-20.5l4.6-11.4
	c-1.2-6.4-2.4-12.8-3.6-19.2c2.1-6,4.1-11.9,6.1-17.9l12.9,10.7l16.5-18.2l-16.7-11.4 M131.1,398.2c-3.3-4.6-6.5-9.2-9.8-13.8
	 M131.1,398.2l9.3-21c4.8,3.8,9.6,7.6,14.4,11.4l18.8-18.2c-5.6-3.8-11.1-7.6-16.7-11.4l19.7-17.1c4.3,4.2,8.6,8.5,12.9,12.7
	l13.6-15.7c3.7,4.7,7.4,9.4,11.2,14.1c5.2-4.6,10.5-9.2,15.7-13.8c7,6.6,14,13.1,21,19.7l18.8-14.2c4.4,4.8,8.8,9.7,13.2,14.5
	l15.7-14.8c6,8,12,15.9,18,23.9l-15.5,14.1c-6-7.8-12.1-15.5-18.2-23.2l-17.3,14.2c-4.9-4.8-9.8-9.7-14.7-14.5l-16.6,15.6
	c-6.7-7.2-13.4-14.3-20.1-21.5l-13.6,14.5 M131.1,398.2l-6.2,5.4c1.6,8.2,3.2,16.4,4.7,24.5l-0.2,7.4c4.4,4.6,8.8,9.2,13.2,13.8
	c1.6,2.6,3.2,5.1,4.8,7.7l6.1,19.1c5.5-1.3,11.1-2.5,16.6-3.8 M121.3,384.5c-1.3-9.7-2.7-19.4-4-29.2 M121.3,384.5l-7.3,7.7
	 M117.3,355.3l-10.5-30.2l4.8-12.5 M117.3,355.3l-7.9,9c1.6,9.3,3.1,18.5,4.7,27.8 M111.5,312.7c-5.7-5.7-11.5-11.5-17.2-17.2
	l10.6-13.2c5.4,6.1,10.8,12.1,16.2,18.2 M111.5,312.7l9.6-12.2 M111.5,312.7c4.8,6.9,9.5,13.9,14.3,20.8l12.7-16.1l19.9,12.8
	c6.1,4,12.1,7.9,18.2,11.8l16.2-17.3c-5-4.5-9.9-9.1-14.9-13.6l-19.6,19.2l-18.2,17.5 M121.1,300.5l15.8-16.6
	c7,4.9,13.9,9.9,20.9,14.8 M121.1,300.5l17.5,16.9l19.2-18.6 M157.8,298.7c6.7,4.1,13.5,8.2,20.2,12.2l14-17.4
	c-5.4-4.6-10.8-9.2-16.2-13.7L157.8,298.7z M140.2,347.6c-4.8-4.7-9.6-9.4-14.4-14.2l-8.5,21.9c3.4,3.8,6.8,7.5,10.1,11.3
	L140.2,347.6z M344.2,387.7l-3.5-12.8l-10.5,19.3c2.8,7.2,5.6,14.3,8.4,21.5L344.2,387.7z M344.2,387.7l9.9-30 M354.1,357.8
	l-1.7-8.3l-6.7-13.8l-14.5,17.7 M354.1,357.8l-1,10.8l12.2-23.3c0.4,5,0.9,9.9,1.4,14.8l14.9-21.5l7,18l14.6-17.2
	c2.6,6.1,5.2,12.3,7.8,18.4l8.5-22.6l3.3,21.4l-5.6,18.3l4.9,11.1l6.5-20.4l1.4-23.6c4,5,8.1,10.1,12.1,15.1c3.2,5,6.5,10,9.7,15
	l0.5-28.8c4.2,8,8.5,16,12.7,24.1l5.5,5.6l4.4,15.4l1.2,6.2L470,406l-10.8-6.6l-17.6,9.6l-16.4-12.6l-17.4,12.8l-16.2,15.6
	c-5.4-4.1-10.7-8.2-16.1-12.4L357,430.6l-14.8,14.2c-7-3.5-14-7-20.9-10.5l-16,10.6 M354.1,357.8l12.3-20.7l-1.9-6.8l11.8-19
	c-2.5-5.4-5.1-10.7-7.6-16.1l-10.5,23.2c-3.9-7.5-7.7-15-11.6-22.4l-15,17c-4.2-4.9-8.3-9.7-12.4-14.6c-5.5,5.1-11.1,10.2-16.6,15.3
	l-15.8,15.8l-17.1,15.2c-6-6.4-12-12.8-18-19.2l-21.8,13.6c-4.3-5.3-8.6-10.6-12.8-15.8L203,338.9c-3.4-4.8-6.8-9.6-10.2-14.3
	l12-16.5c4.1,5.1,8.1,10.2,12.2,15.2l18.5-15.6c5.4,5.9,10.8,11.8,16.2,17.7l19.1-14.8l16,18.7c3.9,5,7.8,9.9,11.8,14.9l16.2-15.8
	c-4-5-8.1-9.9-12.1-14.9c-5.4-5.8-10.8-11.6-16.3-17.3l-15.5,14.4c-6.4-6-12.8-12-19.1-18l-16.2,15c-5.1-5.2-10.3-10.4-15.4-15.6
	 M331.2,353.3c3.1,7.2,6.3,14.4,9.4,21.6l11.8-25.5l12.1-19.2c-2.1-4-4.1-8-6.2-12l-12.6,17.3c-4.6-7.6-9.3-15.1-14-22.7l-16.9,15.7
	L331.2,353.3z M331.2,353.3l-14.6,14.9c4.5,8.6,9,17.2,13.5,25.9l-13,13.3l-16-25.1c-5.5,4.6-11,9.3-16.5,14l-19-23l-18.8,16.6
	c-4.2-5.1-8.4-10.3-12.5-15.4l-15.9,15c-5.9-7.4-11.9-14.7-17.8-22.1 M200.6,367.5l-13.2,15.3l-13.9-12.4l15.9-15.8
	C193.2,358.8,197,363.1,200.6,367.5z M170.2,472.4l0.5-13.2l20.2-10.6l-4.7,10.2L170.2,472.4z M114.1,392.1
	c2.1,7.6,4.2,15.3,6.2,22.9c-0.1,5.1-0.3,10.1-0.5,15.2c3.4,5.3,6.7,10.6,10.1,15.9c-0.9,3.5-1.9,7-2.8,10.4l14.5,12.5l-5.3,16.8
	l-7.3,18.2l-13.7-14.8l-2.3,10.7c3.6,6.1,7.3,12.3,10.8,18.4c0.5,3,0.9,5.9,1.4,8.9l13.1,17.2l9.7-1.4l15.5-12.1
	c4.6-1.8,9.1-3.6,13.7-5.4c-3.2-1.1-6.5-2.2-9.7-3.3c8.4,1.6,16.8,3.2,25.3,4.8 M114.1,392.1l-3.6,11.4c3.1,8.9,6.3,17.8,9.4,26.6
	l-3.7,11.3 M192.6,526.9L211,520l12.4-17.1l11.6-22.3c6.4,2.2,12.9,4.5,19.3,6.7l18.7-15.7c6.1,4.4,12.1,8.7,18.2,13l18.1-16.3
	 M192.6,526.9l-3.5,1.4l14.6-6.6l11.6-15.9c3.4-7.5,6.8-15.1,10.2-22.6l9.3-2.6l17.6-19.6c6.8,3.6,13.6,7.1,20.5,10.6l19.5-16
	 M309.3,468.2l18.1-7.1c4.9,3.2,9.8,6.5,14.7,9.7l17.6-6.2c-4.9-1.3-9.8-2.6-14.7-4l26.3-4.5 M309.3,468.2
	c-5.6-4.2-11.2-8.5-16.8-12.7 M371.3,456.2c4.3,0.3,8.5,0.5,12.7,0.8l19-9.8l2.7-3.6l15.6-14.8c-1.2-3.1-2.4-6.2-3.6-9.3l10.5-18.4
	l-6.1-14.9l-8.5,22.8c1.4,3.5,2.8,7,4.2,10.5l-11.4,16.8l-0.5,7.3l-16.7,13.2l-5.1,0.2l-24.4,7.6l10.8,3.7
	c6.2-3.8,12.4-7.7,18.6-11.5l2.7-2l14.6-18.5l-2-7.8l9.3-19.6c-1.5-3.4-3.1-6.9-4.6-10.3c2.7-7.9,5.5-15.7,8.2-23.6
	c-2.1-5.7-4.1-11.4-6.2-17.1c-3.5,7.5-6.9,15.1-10.4,22.6c-4-8-8-15.9-12-23.9l-11.7,25.6l-5.9,23.7l14,21.6 M371.3,456.2l23.8-11.1
	l13.4-12.5c3.5,0.4,7.1,0.8,10.6,1.3l17.8-10.9l18-9.1c-1.7-1.8-3.4-3.7-5.1-5.5 M371.3,456.2c-5.3-1.6-10.6-3.3-16-4.9
	c-9.6,0.7-19.1,1.4-28.7,2.1c6.1,2.4,12.2,4.8,18.4,7.2l-17.6,0.5l-16.2-7.6l-18.7,2.1 M433.5,413.5l-12.1,15.3l-0.1,4.5
	 M433.5,413.5c-1.7-4.1-3.5-8.2-5.2-12.4l8.8-20.7l7.6,15.3L433.5,413.5z M433.5,413.5c1,2.6,2,5.1,2.9,7.7
	c-5,4.1-10.1,8.1-15.2,12.1 M421.3,433.3l-18.2,14c-2.7-0.7-5.4-1.5-8-2.2l23.9-11.2L421.3,433.3z M116.2,441.5c3.7,5,7.3,10,11,15
	l-6.5,14.6l-5.3,18.1c-3.5-4.9-7.1-9.7-10.7-14.5l-2.1,9.2l10.4,16l2.1,8.4 M116.2,441.5L106,416.8l4.5-13.2l-5.6-26.5 M116.2,441.5
	l-6.5,14.6 M115.1,508.3l10,18.8l7.7,2.9l14.5-8.3c4.3-1,8.6-2.1,12.9-3.1l7.1,3.6c1.5,1.4,3.1,2.7,4.7,4.1l17.1,2l-10.3,1.4
	c6-1.8,11.9-3.6,17.9-5.4l14-15.5l11.5-21l3.6-4.6l13.9-20.5l13-1.8l22.2-9.9l14-1.7c7.5,1.4,15,2.8,22.5,4.2l15.4-0.1l15.6-8.6
	l13.1,6.4l18.9-11.4l17.3-15c5.6,2.6,11.2,5.1,16.8,7.7l19-14.6l14.2-8.9c3.4,2,6.8,4,10.2,6l18.3-9c-0.7-1.1-1.3-2.2-2-3.3
	l6.9-14.3c-3.3-7-6.6-14-9.9-20.9l-4.8,24c2.6,3.8,5.2,7.5,7.8,11.3l-13.2,11l-3.2,1.3c-8.1,0.9-16.2,1.9-24.3,2.9
	c3.1,1.7,6.3,3.3,9.4,5c-0.1-0.6-0.3-1.2-0.4-1.7l13.3-12.9 M115.1,508.3c-3.3-6.7-6.6-13.3-9.9-20l-2.6-4.5l-14.5-23
	c1.3-3.4,2.6-6.8,3.9-10.2l6.7-17.3l7.4-16.5l-7.7-23.3l6.6-16.4 M115.1,508.3l8,5l13.9-4.6l10.8-1.7l1,3.8c0.9,2.2,1.7,4.5,2.6,6.7
	c6.8,2.9,13.7,5.8,20.6,8.7c2.3,1.2,4.5,2.3,6.8,3.5l-3.7,0.1l14.8-5.1c4.8-4.5,9.6-9,14.3-13.6l11.9-19.6l14.2-20.6l22-15.9
	l26.6-8.2 M449.8,408.3l-5.1-12.5l7.2-23.5l8.4,19.2L449.8,408.3z M292.5,455.5l-17.7-4.5l-12.6-0.9l-22.6,12.6l-3.9,5.3l-13.6,19.7
	l-5.9,3.9l-10.4-1.9c-4-3.2-8-6.5-12.1-9.8L177.2,496 M352.9,271.6c-5.3-7.6-10.6-15.3-16-22.9l-16.8,17.5 M352.9,271.6l-6.2,24.3
	c-3.5-4.5-7-9-10.5-13.5l-16.9,15.9c-5.2-5.4-10.5-10.8-15.7-16.2l-17.2,14.2c-6.7-5.5-13.4-11-20.1-16.5l-14.5,13
	c-5.4-5.1-10.7-10.3-16.1-15.4 M352.9,271.6c5.3,7.9,10.6,15.8,15.9,23.7l11.9-20 M352.9,271.6c5.1-6.8,10.2-13.6,15.4-20.4l12.4,24
	 M352.9,271.6l-16.7,10.9c-5.3-5.4-10.7-10.8-16-16.2 M320.2,266.2L303.9,253L286,266.7 M320.2,266.2l-16.6,15.9L286,266.7
	 M286,266.7L270,253.2l-20,12.4l-16.3-12l-14.1,9.9c-5.2-4.3-10.4-8.7-15.7-13l-14.4,13.3c-6.3-4.5-12.5-9.1-18.8-13.6l-15.7,16
	c-6-5-12-10.1-18-15.1l-17.1,16.1c-5.2-5.5-10.4-11.1-15.6-16.6l-13.6,14.1l-17.7-9l-2.6,19.8l8.1,6.4l-0.4,8.7
	c4.7,4.9,9.3,9.9,14,14.8c0.5,3.2,1,6.3,1.5,9.5l10.4,22.5 M286,266.7l-19.8,13.1c-5.4-4.7-10.9-9.5-16.3-14.2l-14.3,11.8
	 M103.9,337.4l-2.8,16.2c1.3,7.8,2.5,15.6,3.7,23.4 M103.9,337.4l2.8-12.3c-4.9-6.6-9.8-13.2-14.7-19.8l2.3-9.9
	c-5.3-4.5-10.5-9-15.8-13.6l12.2-17.3c4.7,5.9,9.5,11.7,14.2,17.6l14.9-15c5.7,5.5,11.4,11.1,17.1,16.6c6-5.8,12.1-11.7,18.1-17.6
	c6.9,4.5,13.9,9,20.8,13.5l13.7-15.9c5.1,4.6,10.2,9.2,15.3,13.9c4.9-4.7,9.8-9.5,14.7-14.2c5.4,4.6,10.8,9.3,16.1,13.9
	 M103.9,337.4l5.4,26.9l-4.5,12.7 M278.9,446.9l12.7-8c4.6,2,9.2,4,13.7,6 M278.9,446.9l11.7,2.3l36,4.1c-7.1-2.8-14.2-5.6-21.3-8.4
	 M278.9,446.9c8.8-0.7,17.6-1.3,26.4-2 M220.1,292.2l-15.2,15.9L192,293.5c4.3-5.3,8.6-10.6,12.8-15.8L220.1,292.2z M220.1,292.2
	l15.6-14.9 M380.7,275.2c2.7,5.2,5.4,10.3,8.2,15.5 M380.7,275.2l9.2-16.6c2.8,4.5,5.6,9,8.4,13.5l-9.5,18.7 M388.9,290.7
	l-12.5,20.6c0.9,3.1,1.8,6.3,2.7,9.5 M388.9,290.7l3.6,11.7l11.7-21.4l2.5,14.3l9.8-21l3.7,11.5l-9.9,23.3l5.2,10.7l-12.1,19.8
	c-2.3-4.2-4.6-8.4-6.9-12.6 M379.1,320.8l-12.6,16.3l-1.2,8.2l13.9-15.4 M379.1,320.8l0.2,9.1 M379.1,320.8l13.3-18.4l-0.1,13.9
	 M379.3,329.8l13-13.5 M379.3,329.8l2.4,8.8l14.7-11.7 M392.3,316.3c1.4,3.6,2.7,7.1,4.1,10.6 M392.3,316.3l14.3-21l3.6,13.8
	l-13.8,17.9 M109.7,456.2l-11-22.9c-2.9-7.2-5.9-14.5-8.8-21.7l8.4-18.1c-1.7-6.9-3.3-13.8-5-20.7l7.9-19.1
	c-1.8-8.5-3.6-16.9-5.4-25.4l-2.2-13.4c-4.4-5.8-8.7-11.5-13.1-17.3l-2.3-7.1c-2.6-5-5.1-10.1-7.7-15.1l-3.6-23.9l5.2-19.6l6.3,1.7
	l14.5-16.8c3.8,2.4,7.7,4.9,11.6,7.3l16.4-14l16.2,11.4 M109.7,456.2l-5,18.5c-4.2-8-8.5-16-12.7-24c-3.6-6.7-7.2-13.4-10.8-20.1
	l8.7-19c-2.3-6.4-4.6-12.8-6.9-19.2l10.3-19.5c-1.6-7.6-3.1-15.1-4.7-22.7l7.2-21.8l-8.4-25.1c-2.3-1.8-4.6-3.7-6.9-5.5l-9.8-15.8
	l-0.2-6.3 M198.3,480.8l10.5-27.2 M208.8,453.5l-1.1-13.4l-21.6,18.8l12.2,21.8l25.1-6c5.9,5,11.8,10,17.7,15
	c6.6-8.4,13.3-16.8,19.9-25.2l-24.8-13.4c1.1-6.5,2.2-13,3.3-19.5c9.3,4.7,18.6,9.4,27.9,14.1c6.8,4.7,13.7,9.3,20.5,14l-10.7,21.3
	c-5.5-5.5-10.9-11-16.4-16.5c2.2-6.3,4.3-12.5,6.5-18.8L266,436c-7.5-2.3-15-4.6-22.6-6.8 M208.8,453.5l27.5-2.4l-12.8,23.6
	 M243.5,429.2c-9.5,1.9-19.1,3.8-28.6,5.7l-7.2,5.3c10.7-2.8,21.3-5.7,31.9-8.5C240.9,430.8,242.2,430,243.5,429.2z M243.5,429.2
	l9.5-1.9 M244.8,517l-26.4,6.3l6.9-2.5l31.8-3.4L244.8,517z M244.8,517c-3.3,0.2-6.5,0.4-9.8,0.6l-11.6,2l-12.5,0.3l-7.1,1.7
	c-2.4,0.9-4.7,1.8-7.1,2.7l-6.9,0.4c-4.5-1.5-8.9-3-13.4-4.6l-11.3,4.7l9.9,5c-4.6-1-9.3-2-13.9-3c-1.5-0.8-3-1.7-4.5-2.5l22.1,5.4
	 M419.6,335.3c0.2-10.9,0.4-21.8,0.6-32.7l-1.6,8c1.4,9.3,2.7,18.6,4.1,27.9l7.4,3.5l-4.1-26.4 M426,315.7l15.2,16.4l1.1,25.1
	l-5.1,23.2l-8.4-14.7c-2-3-3.9-6-5.9-9l-0.1-18.1c-1.1-1.1-2.1-2.2-3.2-3.3c-1.4-5.2-2.8-10.4-4.2-15.6l6.6-25.4
	c-0.7-2.9-1.3-5.7-2-8.6l6.3-19c-1.6-3.5-3.2-6.9-4.7-10.5l-6.3-18.2l-3.5,23.8l-7.7,19.1l-5.8-9l6.3-19.5
	c-2.9-5.7-5.8-11.4-8.8-17.1l-5.9,23.1l-10-20.9l-11.7,13.5c-4.5-7.1-9-14.2-13.5-21.3L337,248.7c-4.8-3.9-9.6-7.9-14.4-11.8
	L303.9,253c-5.4-3.4-10.8-6.7-16.3-10.1L270,253.2l-18.4-10.7l-17.9,11.1c-5.1-4-10.3-7.9-15.4-11.9l-14.4,8.8L187.3,235l-16.6,15.3
	c-5.8-4.7-11.6-9.3-17.3-14L137,251.2c-5.5-5-10.9-10.1-16.4-15.1l-16.3,14.6l-16.5-11.7L73,255.6c-2-1.3-4.1-2.7-6.1-4l11.5-17.9
	c3.1,1.7,6.3,3.5,9.4,5.2l16.7-14.6c5.4,3.9,10.8,7.9,16.1,11.8l16.5-14.4 M426,315.7l10.6-3.1l4.5,19.5c3.7,3.8,7.5,7.6,11.2,11.3
	c-1.5-9.3-2.9-18.6-4.4-27.9l9.1,20.1l-5.8-17.1c0.2,4.5,0.4,8.9,0.7,13.4c2.8,5.4,5.6,10.7,8.4,16.1l-3.1,17.8
	c5,6.2,10,12.4,15,18.6l-13,15.1l-16.9-16.4l-17.1,13.4c-5.6-5.3-11.2-10.6-16.8-15.9l-16.5,15.1l-16.4,16.9l-18.3-14l-21.5,20.4
	l-14.3,15.4c-5.3-3.9-10.5-7.8-15.8-11.7 M426,315.7c-2.5-1.7-4.9-3.3-7.4-5c-1.6-9.9-3.2-19.8-4.8-29.7l6.5-5.8l0,27.5l1.8-8.3
	l4.3-21.9l0-5.8l2.5-28 M426,315.7l-6-28.5l11.6-5l5,30.5l11.4,2.9l3.2,2.9c-2.7-9.4-5.5-18.8-8.2-28.2c-1.1,7-2.2,14.1-3.3,21.2
	l12.2,20.4l-11.3,19.5c5.5,4.8,11.1,9.6,16.6,14.4l-15,17.3c-5.8-5.6-11.6-11.2-17.3-16.8c-5.6,4.8-11.1,9.6-16.6,14.3
	c-5.4-5.4-10.9-10.9-16.3-16.4l-16.3,15.5c-5.7-5.2-11.4-10.4-17.1-15.7l-20,20.9c-6.4-3-12.9-6-19.3-9l0.5,28.8 M137.1,221.7
	l16.3,14.6l16.9-14.1c5.6,4.2,11.3,8.5,17,12.8l15.5-10l15.5,16.7l15.6-10.9c5.9,3.9,11.8,7.8,17.7,11.7l17.2-9.8
	c6.3,3.4,12.5,6.8,18.8,10.2l17.9-15.7c5.7,3.2,11.3,6.5,17,9.7l20.7-17.1l14.4-13.8c3.6,3.6,7.2,7.3,10.8,10.9
	c3.8,6.9,7.7,13.9,11.5,20.8c2.6-5.6,5.3-11.3,7.9-16.9l8,14.6l0-29.4l10.8,19.9c-0.7,8.9-1.3,17.7-2,26.6l7.2,9.4l4.5,12.4l5.3-18
	l1-26.2c-3.4-6.2-6.8-12.4-10.2-18.6c1,8.9,2,17.7,3,26.6c-2.9-4.1-5.8-8.1-8.7-12.2l-4-19.8l-6.8-0.1c-2.8-1.9-5.6-3.9-8.4-5.8
	l0.5,20.6l-7.1-14.5l-12.3,10.6l-13.7,13c-3.8-3.4-7.6-6.8-11.4-10.2c-6.5-3.3-13-6.5-19.5-9.8l-18.3,17.2
	c-6.1-2.7-12.3-5.5-18.4-8.2l-18.4,13.8l-16.5-12.5l-18.4,10.6c-5.7-5-11.3-9.9-17-14.9l-14.1,9.1c-5.5-4.9-11-9.8-16.6-14.8
	c-5.3,4-10.6,7.9-15.9,11.9c-5.6-4.1-11.1-8.1-16.7-12.2L137.1,221.7z M476.1,394.6l-3.8-10.2l-1.7-11.2
	c-3.4-8.4-6.8-16.8-10.2-25.2l-3.2-12.3c2.7,10.6,5.3,21.3,8,31.9 M66.9,251.6l-4,7.1c2.6,7.7,5.2,15.4,7.8,23.1
	c1.3,0.3,2.6,0.6,3.9,1c4.3,6.8,8.5,13.6,12.8,20.4l-1.3,20.6c0.8,8.8,1.6,17.5,2.5,26.3l-11,18.6c1.8,7.9,3.6,15.8,5.4,23.7
	l-10.5,21.8 M72.4,414.1c2.9,5.5,5.8,10.9,8.7,16.4l-5.5,10.9c4.2,6.5,8.3,12.9,12.4,19.4c1.4,1.8,2.8,3.5,4.2,5.3
	c4.3,7.4,8.6,14.8,12.9,22.2l8.8,0.8l15.9-3.4l8.7,2.7l-0.2,5.6l-0.9,8c1.2,2.6,2.3,5.3,3.5,7.9l6.1,4.8l6.8-0.6l8.6-5.5
	c4.6,3.8,9.2,7.7,13.8,11.5l15-12.9l14.3-17.6l14.7-19.1 M72.4,414.1c-2.7-8.6-5.4-17.2-8.1-25.8c4.4-6.6,8.8-13.1,13.2-19.7
	c-1.6-7.9-3.2-15.7-4.8-23.6l13.4-21.2l-8.7-29.9l-2.9-11.1c-3.6-6.5-7.1-13-10.7-19.5l-1.1-4.7l1.9-26.8l7.3,0.1l9.5-20.8l11.4,5.8
	l14.8-14.4c4.4,2.6,8.8,5.2,13.2,7.8l16-10.7c5.6,3.5,11.2,6.9,16.7,10.4l16.7-10.1c5.3,3.4,10.6,6.9,15.9,10.3l14.3-8.6l16.4,14.3
	l18.3-10.8c5.7,5,11.4,10.1,17.1,15.1l19.4-12.6c5.2,3.7,10.4,7.5,15.5,11.3l17.8-16.8l18.8,7.9l15.4-14.6 M72.4,414.1L64.3,427
	 M220.5,470.6l18.7-17.1l18.8-13.1l17.4-11.1l16.2,9.6l13.9-16.3 M220.5,470.6c3.3,0.2,6.5,0.3,9.8,0.4l5.3-3l22.4-14.9l32.6-3.9
	l-1.9,0l-26.6,0.8l-4.1,3.1l-5.7,1.9c-4.4-0.5-8.8-1-13.2-1.6c-4.2-2.3-8.4-4.7-12.5-7L213.3,435l-18.9,12.8
	c-5.4-6.7-10.8-13.5-16.2-20.2l-17.1,13.2c-4.9-6.2-9.8-12.4-14.7-18.7l-15.5,16.3 M220.5,470.6c-3.6-2.5-7.2-5-10.8-7.4
	c-5.1-5.1-10.2-10.2-15.3-15.3l-16.2,14.5l-17.1-21.5l-14.9,13.9c-5.1-5.4-10.3-10.8-15.4-16.2l-18.8,6.6c-3-1.1-5.9-2.1-8.9-3.2
	c-3.4-1.6-6.8-3.2-10.2-4.8c7.7,4.9,15.4,9.8,23.1,14.8c4.1,6.5,8.3,13.1,12.4,19.6c3.3,7.5,6.7,15,10,22.6l10.4,16.8
	c6.2,3.8,12.3,7.6,18.5,11.4 M305.6,422.6l5.3-15.1l4-20.2l4.5-11.3 M428.8,238.7c-2.1-2.9-4.2-5.8-6.2-8.7
	c-1.2-6.5-2.4-13-3.7-19.5 M428.8,238.7l1.4,6.5 M428.8,238.7l-2.1-26.5l-7.9-1.7 M418.9,210.6l-6.6,0.9c-3.2-1.8-6.5-3.6-9.8-5.4
	c-2.5-6.7-5-13.3-7.6-19.9c-3.2-0.5-6.4-0.9-9.6-1.3c3.5,7,6.9,14.1,10.4,21.2 M418.9,210.6c-2.7-6.1-5.4-12.1-8.1-18.2
	c-2.8-1.2-5.5-2.5-8.3-3.7c-4.8-4.5-9.6-9-14.4-13.4c-2.2-1.1-4.5-2.1-6.7-3.2c-5.7-4.1-11.4-8.2-17.1-12.2l-11.4,3.7
	c6,3.6,12.1,7.2,18.1,10.9 M147.9,542.9c-5.1-4.4-10.1-8.7-15.1-13l-9.7-16.7c-3-8.1-6.1-16.1-9.1-24.2l-12.7-22.7 M101.3,466.3
	c-6.9-6-13.8-12-20.7-18l-4.7-0.3l-16.2-13.1l4.6-7.9 M101.3,466.3c-3-0.1-6-0.2-9-0.2c-5.5-6-10.9-12.1-16.3-18.1l-0.3-6.6
	c-3.8-4.8-7.6-9.5-11.3-14.3 M101.3,466.3l17.2-5.2l10.4,2.1 M64.3,427c-3.9-6.4-7.7-12.7-11.6-19.1 M52.7,408l11.7-19.6
	c-2.1-8.7-4.1-17.4-6.2-26.1L72.8,345c-2-9.3-4.1-18.5-6.1-27.8l10.8-23.3L64.8,271l-0.9-7.8l-5.3-22.9c2-2.8,4.1-5.7,6.1-8.5
	l4.1-23.3c4.2,0.8,8.4,1.7,12.7,2.5l12.2-17.3l14,8.7l14.5-12.6c4.9,3.2,9.8,6.5,14.7,9.7l17.4-11.3c5.3,3.9,10.7,7.8,16.1,11.7
	l15.8-11.1c4.8,4.2,9.6,8.5,14.4,12.7l17.4-12.3l17.3,15.8l17-11.9 M52.7,408L44,384.1l14.2-21.8l-7.1-22.1l15.6-22.9L59,288.9
	l5.9-17.9l-11.3-20.7l5-10l-4.9-18.1l15.2-13.7l13.1-19.2c3.9,1.5,7.9,3,11.8,4.5l14.1-15.3c4.8,3.7,9.5,7.5,14.3,11.3l16.1-15.3
	c5.4,4.6,10.7,9.1,16.1,13.7l16.7-15l15.2,15.6l17.2-15.2c4.9,5.2,9.7,10.4,14.6,15.6l14.5-12.7c6.6,5.5,13.2,11.1,19.8,16.6
	 M52.7,408c-2.4,4.2-4.8,8.4-7.3,12.6c4.8,4.8,9.5,9.6,14.3,14.3l-0.3,3.8c7.1,3.2,14.1,6.4,21.2,9.6l13.2-6.5l15.9,0.1
	c2.2,3.3,4.3,6.7,6.4,10l1.4,10.4c1.5,2.3,3.1,4.6,4.6,6.9l12.9,0.9l3.7,24.8 M252.3,193.2c6.4,4.8,12.9,9.6,19.4,14.4l19.6-14.1
	c4.6,2.8,9.1,5.7,13.7,8.6l16-15.2c6,2.8,12.1,5.7,18.1,8.5 M252.3,193.2l19.3-14.1c6.6,4.8,13.1,9.6,19.7,14.4l16.5-13.8l13.3,7.2
	l16.8-13.4c5.7,2.8,11.4,5.5,17,8.2c5.3-2.5,10.7-4.9,16-7.4c2.7,3.6,5.4,7.1,8,10.7l6.5-0.2c-4.8-3.5-9.7-7-14.5-10.5l10.4-2.3
	l13.7,14.1c2.5,0.8,5,1.7,7.5,2.5c3.3,7.6,6.6,15.2,9.9,22.8 M339.1,195.4l15.7-13.7c5.2,3.6,10.5,7.2,15.7,10.8 M339.1,195.4
	c6.2,3.5,12.3,7,18.5,10.5l13-13.4 M370.6,192.6l8.3-7.5c2.8,5.1,5.6,10.1,8.4,15.2l-6.6,6L370.6,192.6z M128.8,463.2l-0.3,8.2
	l-1.2,10.7c1.2,2.9,2.4,5.7,3.6,8.6c2.6,1.4,5.2,2.7,7.9,4.1 M128.8,463.2c-6.4-7.1-12.8-14.2-19.1-21.3l-32.6-6.2
	c-4.5,1.2-9,2.4-13.5,3.5c-7.1-1.6-14.3-3.3-21.4-4.9l0.2-4.6c-4.4-5-8.8-10.1-13.2-15.1l4.8-13.5c-2.3-6.5-4.7-13-7-19.5l9.9-17.2
	c-1.4-8.2-2.8-16.5-4.2-24.7c5.3-9.3,10.5-18.6,15.8-27.9l-0.3-27.7 M128.8,463.2l9.9,25.2l9.1,18.6c4.1,3.8,8.3,7.7,12.4,11.5
	c5.6,2.3,11.2,4.6,16.8,6.9 M138.8,494.8l10.9,0.1 M138.8,494.8c2.8,6.6,5.6,13.3,8.4,19.9l14,12.1l3.9-2
	c-3.7-3.6-7.4-7.1-11.1-10.7c-1.4-6.4-2.9-12.8-4.4-19.2 M149.6,494.9c4.3,4.6,8.6,9.2,13,13.7l14.5-12.7 M149.6,494.9
	c4.4-5.6,8.7-11.3,13-16.9c4.8,6,9.6,12,14.5,18 M149.6,494.9c-4.9-8.3-9.8-16.6-14.7-24.9 M427.4,417.9c-6.5-2.9-13.1-5.8-19.6-8.7
	c-5.3-4.5-10.6-9.1-15.9-13.6l-16.2-15.9l-18.6,18.7c-6.2-4.5-12.4-9-18.6-13.5l-18.8,19.9l15.9,14.1c7.1,3.9,14.3,7.8,21.4,11.7
	c5.7,3.1,11.5,6.2,17.2,9.3l20.8,5.1 M135,470.1l11.3-15.4c5.5,7.8,10.9,15.5,16.4,23.3l15.5-15.6c5.2,5.9,10.3,11.7,15.5,17.5
	l16-16.8l16.9-16.7l17.2-16.5l16-10.9c5.2,3.4,10.4,6.9,15.6,10.3l17.2-10.2c4.3,1.2,8.7,2.3,13,3.5l14.1-17.8 M135,470.1
	c-1.4-10.5-2.7-21-4.1-31.6 M319.7,404.8l-8.9,2.7l-1.1,3.5 M68.8,208.6c-3.8-0.9-7.5-1.9-11.3-2.8l7.4-20.6l17,4.1L96,174.2
	c3.9,1.5,7.9,3,11.8,4.4l15.1-16.5c5.1,4.2,10.2,8.4,15.2,12.5l16.5-15.8c5.4,4.8,10.8,9.7,16.2,14.5l17.1-15.9
	c5.1,5.4,10.2,10.9,15.3,16.3l13.6-14.2c5.2,5.7,10.3,11.4,15.5,17.1l19-14.4l20.1,16.9l16.3-15.3c6.6,5.3,13.2,10.6,19.8,15.9
	l15.8-15.1c4.8,3,9.5,5.9,14.3,8.9l15-10.1c-5.5-4.8-11-9.7-16.6-14.5l11.4-12.6c5.5,7.8,11.1,15.6,16.7,23.4
	c1.6,0.7,3.2,1.5,4.9,2.2c6.3,4.4,12.6,8.8,18.9,13.2c2.8,1.3,5.7,2.7,8.6,4c4.7,4.4,9.4,8.7,14.1,13.1c3,0.1,5.9,0.1,8.8,0.2
	l7.1,19.7c2.4,1.3,4.8,2.5,7.2,3.8l-3.7,29.1 M430.2,245.2l-3.9,4l-6.1,26c2-0.9,4.1-1.8,6.1-2.7L430.2,245.2z M319.3,376l17.3-24
	 M319.3,376l-3-32.2 M336.6,352c7.3,4,14.7,8.1,22,12.1l16.9-15.6c5.5,5.3,11.1,10.5,16.6,15.8l15.9-14.3
	c5.7,5.4,11.4,10.9,17.1,16.3l15.6-14.9c-6.4-6.3-12.9-12.6-19.3-18.9l18.4-21c-2-10.7-3.9-21.5-5.8-32.2c3.1-7.4,6.2-14.9,9.3-22.4
	c-0.1,11.1-0.1,22.3-0.1,33.4c-0.6-4.2-1.2-8.3-1.8-12.5c2.3,12.5,4.5,25,6.8,37.6 M336.6,352c-6.8-2.7-13.5-5.5-20.3-8.2
	 M336.6,352l21.6-18.5c5.7,5,11.5,10,17.2,15l15.5-14.3c5.7,5.3,11.3,10.5,17,15.8l13.4-17.5l-6.6-27.2l19.1-26l6.4-25.9
	c1,1.2,1.9,2.3,3,3.5l1.4-10.1l-1.3-12l0.4-13.8L450,196l0.5-6.7l-7.6-23.6l-6.9,0.2c-5.7-5.9-11.3-11.7-17-17.6l-14.4,10.4
	c5.5,4.8,11,9.6,16.5,14.4l-15.6,5.8c-6.8-4-13.6-8-20.4-12l-10.9-0.9c-5.6-7.5-11.2-15-16.8-22.5l-1.8-1.7
	c-1.3-9.8-2.7-19.7-4-29.5l-6.3-8l2.5,32.3 M433.5,192.2l0.4,23.9c0.3,3,0.7,5.9,1,8.9l-8.6,24.2l-5,3c-2.5,9.6-5.1,19.2-7.6,28.7
	l6.2,6.1l3.3-24.5c-0.7-3.4-1.3-6.9-2-10.3l11.7-21.6l1.9-5.7l6.2-18.9C438.6,201.4,436.1,196.8,433.5,192.2z M433.5,192.2L421,173
	l14.9-7.2l7.9,19.9l6.6,3.6l-8.4,25.4c0.6,2.1,1.1,4.3,1.7,6.4l-9.4,17.4l3.4,18.5 M437.7,257l3.5,20.9 M437.7,257l-6.1,25.2
	 M437.7,257l5.6-22.2c1-8.3,2-16.7,2.9-25c1.2-4.6,2.5-9.2,3.7-13.9l-7.5-23.9l0.4-6.4c-3.8-4.8-7.7-9.5-11.5-14.2
	c-4.1-1.1-8.3-2.1-12.4-3.2c-8-4.9-15.9-9.9-23.9-14.8l-12.6,7.4c7.4,5.9,14.7,11.9,22.1,17.8c-6.5,2.7-13,5.5-19.6,8.2
	c-5.7-6.8-11.4-13.7-17.1-20.5c-3.5-1-7.1-1.9-10.6-2.9l-1.5-31.8l-4.3,0.6l0.3-30.7c-2.3-3.1-4.6-6.1-6.8-9.1l0.2,31.8l-15.5-20.7
	 M441.3,277.8l-9.6,4.3 M441.3,277.8c1.1-10.3,2.2-20.7,3.3-31l-2.3-26.8l3.9-10.2l-7.6-19.4c1.3-6.1,2.5-12.3,3.8-18.4
	c-3.7-4.5-7.4-9.1-11-13.6l-0.1-7.1c-5.4-4.3-10.8-8.6-16.1-12.9 M431.6,282.1l-8.3-19.6l11-24.1c-0.4-2.6-0.9-5.2-1.3-7.8l9.1-16
	c-0.3-2.9-0.6-5.7-0.9-8.6l2.6-20.4l-10.4,6.5l-13.9,0.4c-4.7-4.6-9.5-9.2-14.2-13.8l-8.8,0.5l-22.6-13.4l-4.9-3.8
	c-4.5-6.8-9.1-13.6-13.7-20.4c-2.6-1.7-5.2-3.5-7.9-5.2c-6.9-8.7-13.7-17.3-20.6-26l-11,15.9c6.7,7.5,13.5,15.1,20.2,22.6
	l-12.7,15.7l-20.1-18.9 M303.4,145.7l-15.5,18c-5.9-6.1-11.7-12.2-17.6-18.3l-18.8,16.7c-6-6.3-12-12.7-18-19
	c-5.5,5.4-11,10.9-16.5,16.3l-13.1-15.5l-15.7,13.3c-5.4-4-10.9-8.1-16.3-12.1l-17.1,13.5c-5.1-3.9-10.3-7.8-15.4-11.7L123,162
	l-13.8-6l-13.2,18.1l-16.8-4.5 M303.4,145.7l12.5-19.4l-13.1-16.1l14.5-14.4l9.7,14.6l2.6-27.1 M303.4,145.7
	c-5.3-6.2-10.6-12.4-15.9-18.7l15.3-16.8l-15.7-14.8L270.2,111c5.8,5.3,11.5,10.7,17.3,16l-17.3,18.4c-6-6.2-12.1-12.5-18.2-18.8
	l18.2-15.6c-5.2-4-10.4-8-15.5-12l-17.1,15.3L203.8,144c-5-4.2-10.1-8.4-15.1-12.7l-16.8,13.9l-15.7-11.1l-16.8,13
	c-4.9-3.4-9.9-6.9-14.8-10.3l-15.4,19.3c-4.5-1.7-9-3.5-13.5-5.2l18.3-22.6 M79.3,169.6L65,185.2c-4.8-1.2-9.6-2.5-14.4-3.7
	 M79.3,169.6l16.4-18.7l-14.4-7.8 M79.3,169.6c-5.2-1.7-10.5-3.3-15.8-5l-12.9,17 M50.6,181.5l-8.3,22c-0.7,5.8-1.3,11.6-2,17.4
	l13.3,1.3l-8.4,9.8c2.8,6.1,5.5,12.2,8.3,18.2L51,265.5l7.9,23.4l-10.5,22.9l2.6,28.4c-4.8,8-9.5,16.1-14.3,24.2l7.2,19.7
	l-10.1,16.9c3.8,6.5,7.7,13.1,11.5,19.6l-3.1,9.1c5.7,3,11.4,6.1,17,9.1c1.4,0.2,2.8,0.3,4.2,0.5c10.1,0.9,20.2,1.8,30.2,2.6
	l24.6,19.3l11.5,24.5c2.3,7.7,4.7,15.4,7.1,23.1c3.4,4.3,6.9,8.6,10.3,12.9c5.3,3,10.7,6.1,16,9.2 M50.6,181.5l-3.8,3.9l-9.4,22.5
	l5-4.4l15.3,2.3l-3.9,16.5 M130.9,438.5c-5.7-7.1-11.4-14.2-17.2-21.3c-5.7-5.9-11.4-11.8-17.1-17.7c-5.1-6-10.1-12-15.2-18
	c-3.9-6.5-7.8-13-11.7-19.5c-5.8-4.9-11.6-9.7-17.4-14.6l-15.8,7.3c3.6,6.5,7.2,12.9,10.8,19.4L69.7,362l13.8-5.8l13.4,14.5
	l13.2-11.3c5.8,5.1,11.6,10.3,17.5,15.5l15.4-14.2c6,4.8,11.9,9.5,17.9,14.3l19.1-14l20.7-10.4c6.3,8.7,12.6,17.5,18.9,26.2
	l15.3-8.7c3.7-3.5,7.4-7.1,11.1-10.7c5.4,5.1,10.9,10.1,16.3,15.2l15.8-14.3c5.6,6.6,11.3,13.1,16.9,19.7l13.4-18.1
	c-5.3-5.4-10.6-10.7-15.9-16.1l12.7-16.6l10.4-21c2.4-0.5,4.8-1.1,7.1-1.6l8.6-22.6l10.4-2.5l14.5,2c6.5,3.2,12.9,6.3,19.4,9.5
	l16.2,14l13.8-17.5 M316.3,343.8l5.3-27.1l15.5,4.6l20.1-16.3c6.1,4.8,12.3,9.7,18.4,14.5l16.1-14.5c4.2,5,8.4,10,12.5,15l10.4-14.9
	l-9.2-17.6 M329.6,83.3c-3.6-6.5-7.1-13-10.7-19.5c-4.7-4.9-9.4-9.7-14-14.6c-3.4-2.4-6.8-4.7-10.2-7.1l15.7-12.7l-8.5-1.4
	l-18.3,13.3 M114,128.3l10.5,8.5l14.5-16.5c5.7,4.6,11.4,9.2,17.1,13.8l15.5-16.1c5.7,4.4,11.3,8.9,17,13.3l18.1-13.5
	c4.5,3.9,8.9,7.9,13.4,11.8c4.4,4.5,8.8,9,13.2,13.5c6.2-5.5,12.5-11,18.7-16.5c-4.8-4.1-9.6-8.2-14.5-12.3
	c-4.3-3.5-8.6-6.9-12.9-10.4l-18,13.9c-6.1-4.9-12.2-9.8-18.4-14.7 M114,128.3l12.3-17.4c4.2,3.1,8.5,6.3,12.7,9.4l15.6-16.3
	c5.7,4.7,11.4,9.4,17.1,14.1l16.7-14.8 M114,128.3l-13.7-5.8 M188.4,103.2l16.8-13.6c6.5,4.8,13,9.6,19.5,14.4L242,89.7
	c4.2,3.1,8.5,6.3,12.8,9.4l16.7-16.4l15.7,12.8L304,79.3c4.5,5.5,8.9,11,13.4,16.5l12.2-12.5l1.3-31c4.7,6.7,9.3,13.3,14,20
	l-3.3-28.1c1.9,3.7,3.8,7.5,5.7,11.2c1.5,8.7,3,17.3,4.4,26l4.1,1l-0.1,29.1l10,8 M188.4,103.2l-17-13.6L154.6,104
	c-5.1-3.3-10.2-6.6-15.3-9.8l-13,16.7c-4.7-2.4-9.4-4.8-14.1-7.2l-11.9,18.9 M100.4,122.5l-19.1,20.6 M100.4,122.5l-8.8,1.3
	l-10.4,19.3 M81.3,143.1l-17.8,21.4l-3.9,4c-4.3,5.6-8.5,11.2-12.8,16.8c1.6,3.2,3.3,6.3,4.9,9.5c-3.1,8.2-6.2,16.5-9.3,24.7
	 M32.6,339.6l-7.2,3.2l-2.8,17.5c-2.7,3.6-5.3,7.3-8,10.9 M14.6,371.3c1.7,8.3,3.5,16.6,5.3,24.9l-5.6,10.6
	c3.9,5.8,7.9,11.6,11.8,17.4l2.5,5.3l18.2,6.9l15.8-4l30.4,4.6c-5.3-0.5-10.6-0.9-16-1.4c-10.1,0.3-20.2,0.6-30.3,0.8
	c-1.5-0.7-3.1-1.5-4.6-2.2l-16.1-9.9l3.1-9.8c-3.1-6.1-6.2-12.2-9.3-18.3l7-14.8l-4.3-21.1l10-20.8l7.6-30.1l7.8-25.4 M14.6,371.3
	l6.5-24.2l4.3-4.3l8.3-21.9l6.6-11.4l4.7-19.1l-2.2,9.3l-9.1,21.2l-0.8,9l-11.8,17.2l-3.8,6.9l-7.8,26.1l0.2,8.6 M14.6,371.3
	l-5.1,8.8c1.6,8.9,3.2,17.8,4.8,26.7l0.8,8.5l13.5,14.2l11.8-4.4l26.2-10.3l18.1-6.5l14.7,16.9l12.9,19.8c3.3,8,6.7,16.1,10,24.1
	l8.8,21.6c3.4,6.4,6.8,12.8,10.2,19.2c5.2,4.8,10.4,9.6,15.6,14.4c-1.7-2.3-3.5-4.5-5.3-6.8c-4.6-5.2-9.3-10.4-13.9-15.5
	c-3.4-6.6-6.9-13.2-10.3-19.9c-3.2-6.6-6.5-13.3-9.8-19.9c-4.8-6.8-9.5-13.6-14.3-20.4c-6.7-4.8-13.4-9.6-20.1-14.3l16.1-2.3
	l14.5-8.1l18.6-10.9c4.7,5.3,9.5,10.6,14.2,15.9l14.6-15.3l17.2,20.7l21.1-10.4l13.9,17.8l19.3-14.1l12.9-10.9l14.4,8.9l22.2-10.8
	l12.9-5.6l10.2,6.7l14.1-10.7l1-2.7l-1.7-27.6c-1.9-3.5-3.8-7-5.7-10.5l2.2-34l6.8-7l15.2-21.7l20.4,10l18.4-14l16.1-17.4l16-13.6
	c4.8,3.8,9.6,7.6,14.4,11.3l11-19.3l7.2,1.3l0.3-20.2l1.9-4.4l-6.9-13.1 M48.2,284.1l-3.5-35.3c-1-2.5-2-5-3-7.6 M48.2,284.1
	l2.8-18.6c-3.1-8.1-6.2-16.3-9.3-24.4 M41.6,241.2l-4.8-18l3.4-2.2c1.6,3.7,3.3,7.4,4.9,11.1L41.6,241.2z M415.2,138.5
	c-3.2-1.3-6.4-2.7-9.6-4c4.5,4.6,8.9,9.2,13.4,13.8 M415.2,138.5c0.2,3,0.3,6,0.5,9.1c5.2,3.7,10.5,7.3,15.7,11l-6,17.8
	c4.4,4.7,8.8,9.4,13.2,14.2l-4,15.2c2.6,4.8,5.1,9.6,7.7,14.4c0,2.9,0.1,5.9,0.1,8.8c0.3,9.4,0.5,18.8,0.8,28.2 M415.2,138.5
	c-5.9-5.9-11.7-11.8-17.6-17.7c-2.1-1.5-4.2-2.9-6.3-4.4c4.8,6,9.5,12.1,14.3,18.1c-3.5-0.4-7-0.7-10.5-1.1L379,115l-13.3,4.6
	 M309.7,411c-1.6-0.6-3.2-1.2-4.8-1.8c-7.7-0.4-15.3-0.7-23-1c3.5,3.7,7,7.3,10.5,11L309.7,411z M309.7,411l10.4-15.2
	c-1.8-2.8-3.5-5.6-5.3-8.5l-2.1-29.6l3.6-13.9l20.9-22.4c7,4,14,8,21,12.1l17.4-13.9c5.1,4.8,10.2,9.7,15.3,14.5
	c4.5-4.7,8.9-9.3,13.4-14c5.7,4.1,11.4,8.2,17,12.3 M405.5,287.7l16.5-16.2c4,2.6,7.9,5.2,11.9,7.8 M405.5,287.7
	c-4.6-4.6-9.3-9.3-13.9-13.9c-6-2.2-12-4.3-18-6.5c-6.7-1.5-13.5-3-20.2-4.6l-11.7,16.9l-13.6,18.5l-5.4,6.5l-12.1,30l-2.2,25.3
	c3.8,6.9,7.6,13.8,11.4,20.6l-8.6,12.9c-5.4-5.1-10.8-10.3-16.2-15.4l-16.5,11.6c-5.4-5.7-10.8-11.3-16.2-17l-12.7,10.3
	c-5.4,4.3-10.8,8.6-16.2,12.9l-13.8-19c-5.3,2.4-10.5,4.8-15.7,7.2c-7.7,3.1-15.5,6.1-23.2,9.2c-6.6-6.1-13.2-12.1-19.8-18.2
	l-14.3,16.3c-6.3-5.5-12.6-11-19-16.4L113,387.8c-5.3-5.7-10.6-11.3-16-17l-15.6,10.7l-17.1,9.6c-5.7-5.7-11.3-11.3-17-17l-17.6,8.6
	l-8-13.4l-5.1-7.3c4.8-4.7,9.5-9.3,14.3-14c0.2-2.8,0.4-5.6,0.7-8.4l16.4-13.7 M365.8,119.5c0.7,8.9,1.4,17.8,2.2,26.6l14.5-5.4
	L365.8,119.5z M42.4,219.6l-5.5,3.6l0.4-15.2C39,211.8,40.7,215.7,42.4,219.6z M42.4,219.6l2.3,29.2l3.9,10.7l-3.7,30.9l3.2-6.3
	 M22.7,417.5c-1.8-7.5-3.6-15.1-5.4-22.6 M22.7,417.5l17.7,7.7 M22.7,417.5c-2.5-0.7-5.1-1.4-7.6-2.2l-5.3-26.6 M17.3,394.9
	c4.6,5,9.1,9.9,13.7,14.8 M17.3,394.9c-2.5-2.1-5-4.1-7.5-6.2 M17.3,394.9l12.5-12.3c5.8,5.7,11.5,11.4,17.3,17.1l17.3-8.7
	c6.7,5.8,13.5,11.5,20.2,17.3l12-8.9l16.3-11.8c6.4,6.2,12.9,12.4,19.3,18.6l14.4-15c4.8,5.2,9.6,10.4,14.5,15.6l19.6-13.7
	c6.2,8,12.4,16,18.7,24.1l20.9-9.8l13.2-11.6l12,14.3l18.6-13l14.6-7.5l16.3,12.9l16.3-9.1l7.9,5.1c0.2-6,0.4-12,0.7-17.9
	c-0.5-4.1-0.9-8.3-1.3-12.4l-7.8-33.6l4.2-10.9l13.3-25.6l8.7-3l19.4-13.5l17.4-14.4l16-14.8c6,2.6,12,5.1,18,7.7l17-14.9
	c2.8,2.3,5.6,4.6,8.4,6.9l1.1-18.4 M31,409.8l16-10c6.5,5,13,10.1,19.5,15.1c5.5,4.2,11.1,8.5,16.6,12.7l-20.5,5l-22.3-7.3
	 M31,409.8c3.1,5.1,6.3,10.3,9.4,15.4 M9.7,388.7l7-26.8l0.6-7.9l14.4-14.4l1.2-9.7L46,311.4 M435.6,215.7l-1-10L421.3,193
	 M435.6,215.7l0.9,7.8c1.4,3.3,2.7,6.5,4,9.8c-2.1,0.2-4.2,0.4-6.4,0.6 M435.6,215.7L419.9,204l1.4-11 M421.3,193l4.2-16.7
	L407.2,165l8.5-17.5l-21.8-14.3l3.7-12.5c-5.2-5.9-10.4-11.8-15.5-17.7c-0.8-1.7-1.7-3.4-2.6-5.1c3.9,6.1,7.9,12.3,11.8,18.4
	L379,115l-8.7-20.4c-2.8-1.9-5.6-3.7-8.4-5.6l3.8,30.6 M421.3,193c-7.1-3.4-14.2-6.8-21.3-10.3l7.2-17.7l-23.9-12.2
	c3.5-6.5,7.1-13,10.6-19.5c-5-6.7-10.1-13.4-15.2-20.1L382,103c-4.6-5.2-9.3-10.4-13.9-15.5l-2.5-4.7c4.6,5,9.2,10.1,13.8,15.1
	l-9.1-3.3l-11.2-17.2c-1.8-2.1-3.7-4.3-5.5-6.4l8.3,18.1l-6.1-6.5c-2.1-6.4-4.2-12.8-6.3-19.2c-0.7-2.6-1.5-5.2-2.2-7.8
	c-3.4-6.3-6.7-12.6-10.1-18.9l-2.4-6.3c2.3,4.7,4.6,9.3,6.8,14c-4.5-5.4-9-10.8-13.4-16.2c0.9,8.1,1.8,16.2,2.7,24.3l-12,11.5
	l-15,15.6c-5.2-4.6-10.4-9.1-15.6-13.7l-16.9,17c-4.2-2.8-8.4-5.6-12.6-8.4L242,89.8c-6.6-4.2-13.3-8.4-19.9-12.6l-16.8,12.5
	c-5.7-3.9-11.5-7.9-17.2-11.8l-16.6,11.9c-5.4-3.6-10.8-7.1-16.3-10.7l-15.9,15.3c-5.2-2.3-10.3-4.5-15.5-6.8l-11.6,16.2
	c-3-0.6-5.9-1.3-8.9-1.9L91.6,124l-4.8,6.5l-13.5,20.7l7.9-7.9 M42.4,219.6c3.1,3.8,6.2,7.5,9.3,11.3 M51.6,230.8l-3,28.7
	c0.6,2.9,1.2,5.8,1.7,8.6 M51.6,230.8l4.5,10.8l-5.8,26.5 M51.6,230.8l8.3-21.3c-2.8-4.9-5.5-9.8-8.3-14.7l12-19.1l7.2,11.1
	l-10.8,22.7l4.9,13.2 M50.3,268.1l-7.6,31.6c1.1,3.9,2.2,7.8,3.2,11.7 M50.3,268.1l5.6,14.2l-10,29.1 M46,311.4l2.1,14.6
	 M434.2,233.7l-14.8-11.4l-12.1,12c-8-2.2-16-4.4-24-6.6L367.6,246l22.1,6.4l17.5-18c5.8,3.6,11.6,7.2,17.4,10.9L434.2,233.7
	c0.8-3.5,1.6-6.9,2.3-10.4l-15.1-11c-0.5-2.8-1-5.7-1.5-8.5c-9.4-2-18.7-4-28.1-6l8.1-15.3c-9.1-2.6-18.2-5.2-27.2-7.8l10.6-22.1
	c-5-6.9-10.1-13.8-15.1-20.7l10.5-18.9l-12.9-18.5l2.4-7.3c-5.3-4.5-10.6-8.9-16-13.4c-1.3-1.4-2.7-2.7-4-4.1l17.5,12.8
	c-2.2-1.8-4.3-3.6-6.5-5.4l-17.7-13.7l-2.4-7.8c4.9,5.1,9.7,10.1,14.6,15.2l-4.1-7.7c-4-5.4-8.1-10.8-12.1-16.2l-0.2-10.5
	c-6.3-3.2-12.6-6.4-18.9-9.6l3-5.3c4.5,2.9,9,5.7,13.5,8.5 M48.1,326.1l19.1-20.2c-3.8-7.9-7.5-15.7-11.2-23.5l8-23l-7.8-17.7
	l8.7-18.9 M48.1,326.1l-0.6,10.1 M64.9,222.7L75.2,203l-4.4-16.2l10.8-18.1c-2-2.9-4.1-5.8-6.1-8.7 M64.9,222.7
	c2.7,4.5,5.5,9,8.2,13.5l8.5-16.6l10.7,18.9l-6.3,20c1.7,8.1,3.5,16.3,5.3,24.4l-9,20l-6.4,2.5 M47.5,336.2L31,348
	c1.8,2.2,3.7,4.4,5.5,6.7l-14.8,14.6L17.2,395 M47.5,336.2l18.8-16c0.2-4.8,0.5-9.5,0.8-14.3l10.2-20.6 M47.5,336.2l0.9,4.9
	c1.3,2.1,2.5,4.2,3.8,6.3l7-17.9l6,9.8c3,0.6,6,1.2,9,1.8l9.2,15.1l9.7-10.1c5.7,4.5,11.3,8.9,17,13.4l15.9-12.4
	c5.7,4.6,11.3,9.1,17,13.7l16.8-16.6c6.7,5.6,13.4,11.3,20.2,16.9l23.9,23c5.5,7.8,10.9,15.6,16.4,23.4l12.3,13.6l11.2,8.9
	c4.7,3.5,9.4,7,14.1,10.5c7,2.2,14,4.3,21,6.5 M36.5,354.7l11.9-13.6L62,324.9l4.3-4.8l16-17.2l-5-17.7 M77.3,285.2l8.7-26.7
	c-4.3-7.4-8.6-14.9-13-22.3l-9.2,23.2C68.4,268,72.9,276.6,77.3,285.2z M283.6,41.4l-24,14.1l16.7,3.2l18.3-16.6
	C291,41.9,287.3,41.6,283.6,41.4z M283.6,41.4L270.5,43 M270.5,43l-9.4,1.3l-27.4,5.8 M270.5,43l22.9-9.2c-1.6,1.4-3.2,2.8-4.8,4.2
	l0.4,4.9l2.2,9c4.6,2.3,9.2,4.6,13.8,6.9c7.1,0.5,14.1,1,21.2,1.5 M270.5,43c-10.4,3.4-20.9,6.8-31.3,10.2l20.4,2.3l-20.4,10.3
	L222,77.1l-17.8-10.7L188,77.8c-5.6-3.3-11.1-6.6-16.6-9.9 M233.7,50.1l5.6,3L221,57.9l-14.8-5.5l-18.4,6.1
	c-4.8-2.2-9.6-4.3-14.4-6.5 M233.7,50.1l-24.3,0.5 M233.7,50.1l-11.9,3.1 M173.3,52L155,59.3 M173.3,52l-6.8-0.6l-4,5.3l-20,7.7
	L126,76.3l2.2,9.8 M173.3,52l13.8-2.6c0.3,1.1,0.7,2.3,1,3.5c11.2,0.1,22.4,0.2,33.6,0.2 M155,59.3l-9.4-0.4l-17.4,12l-2.3,5.4
	l-13.3,15.4c0.5,3.2,1.1,6.4,1.6,9.6l-12.9,20.2l2.2,10.4c0.2,3.4,0.3,6.9,0.5,10.3l0.5,5.2l-9.2,26.1 M155,59.3l-16.1,12.1
	L128.2,71l-14.3,15.1l-1.3,5.6l-11.4,16.5 M155,59.3c5.5,2.8,10.9,5.7,16.4,8.5 M95.3,173.4c-1.9,8.3-3.9,16.6-5.9,24.8l-3.8-15.9
	l8.3-18.5C94.4,167,94.8,170.2,95.3,173.4z M95.3,173.4l1.4,8.1c0,10,0,20.1,0,30.1 M96.7,211.6c2.2,3.1,4.5,6.2,6.7,9.3l-3,33.3
	 M96.7,211.6c-1.5,9-2.9,17.9-4.4,26.9c2.7,5.2,5.4,10.4,8.1,15.7 M96.7,211.6c-2.5-4.4-4.9-8.9-7.4-13.3l-7.8,21.3L75.2,203
	l10.4-20.6l-4.1-13.7l9.5-16.1c-1.1-3.4-2.3-6.8-3.4-10.3l13.6-20.9l-0.1-13.3 M100.5,254.1c-1.1,2.2-2.2,4.4-3.3,6.6l-14.3-2
	l-9.4,20.5l-5.8,3.4c0.7,2.5,1.4,5,2.1,7.5l-2,27.6 M101.2,108.2l2.1-6.4L114,86.1c3.3,0.5,6.6,0.9,9.9,1.4l15.1-16
	c5.4,2.5,10.8,5,16.3,7.5l16.1-11.2 M101.2,108.2l-14.4,22.2l0.9,12l-12.3,17.7 M171.3,67.8l16.4-9.3c5.5,2.6,11,5.2,16.5,7.8
	L221,58l18.3,7.9l19.6,8.5l17.5-15.6c4,2.3,8,4.6,12,6.9l16.6-16.4L317,37.8c-2.2-2.9-4.3-5.7-6.5-8.5c5.9-0.4,11.9-0.9,17.9-1.4
	c-2.3-2.1-4.6-4.2-7-6.3l-19.4,6.3l-8.4,5.8l24.8-6.8c-0.3,3.4-0.7,6.7-1.1,10L337.4,47c0.5,2.9,1.1,5.8,1.6,8.6
	c-7.2-3.7-14.3-7.3-21.5-11l0.7,7.9c-9-0.2-18-0.4-27-0.7l-1.6,10.7l15.3-3.8c2,2.3,4,4.7,6,7c7.4-0.7,14.7-1.3,22.1-1.9
	c1.1,1.3,2.2,2.6,3.4,3.9l17,11.7l-2.8,9.1c3.2,6,6.4,12.1,9.5,18.1l-6.7,18.2c1.3,10.2,2.6,20.4,4,30.6l-3.7,13.7
	c4.4,6.6,8.9,13.1,13.3,19.7c0.5,2.8,1.1,5.5,1.7,8.3l21.8,10.7l-0.8,10.5l29.6,3.9l2.1-9.9c-10.3-1.5-20.6-3.1-30.8-4.6l1.3-9.9
	c-8.2-3-16.5-6-24.7-9.1l5.6-14l-15.2-19.4l10.7-23.5l-8-25.4l5.6-12c-4.1-5.1-8.2-10.1-12.3-15.2l-1.3-5.5L333,63.8
	c-2.3-1.2-4.6-2.4-6.9-3.6 M326.1,60.2c-2.7-2.6-5.3-5.2-8-7.7c7.8,3.7,15.5,7.3,23.2,11c2.2,2.1,4.4,4.3,6.7,6.4
	C340.8,66.7,333.4,63.5,326.1,60.2z M75.5,160.1c-0.7-3-1.4-6-2.1-9c-4.6,5.8-9.2,11.7-13.8,17.5c1.3,2.4,2.7,4.7,4,7.1L75.5,160.1z
	 M75.9,305.4L62,324.9l-2.7,4.6l5.9-24.6C68.8,305,72.4,305.2,75.9,305.4z M75.9,305.4l13.9-25.7l10.7-25.6L86,258.4 M91.3,282.9
	l-1.5-3.1l-16.3-0.5l-8.3,25.7l-2.7,5.7l5.3,7.1 M67.8,317.7l6.4,23.3l8.2-6.9c3.6,4,7.2,7.9,10.8,11.9l15-9.8
	c5.9,3.6,11.9,7.2,17.9,10.8l17.3-16.1c5.5,4.4,11,8.7,16.5,13.1l20.2-13.5c6.9,6.7,13.8,13.4,20.7,20.1c5.1-0.7,10.1-1.5,15.2-2.3
	c6.3,6.6,12.7,13.2,19,19.7c4.9,4.9,9.8,9.9,14.7,14.8c4.8,4.7,9.6,9.4,14.4,14.2c6,3.7,12,7.4,18,11.1 M67.8,317.7
	c2.7,0.5,5.4,1,8.1,1.4 M206.1,52.4l-19-2.9l22.2,1 M209.3,50.6l12.4,2.7l34.9-5.8l32.5-4.5c9.5,0.6,19,1.2,28.5,1.8l-0.4-7.7
	l-28.5,1l-27.5,6.3l-4.5,3.1l-0.1,8.6 M209.3,50.6l-3.2,1.9l33.1,0.7 M221.8,53.2c0,3.4,0.1,6.9,0.1,10.3l-13.3,13.1
	c-1.7,4.8-3.3,9.7-4.9,14.5l36.7,4.7l-2.5,11.4 M237.9,107.4l34-10.2 M237.9,107.4L208.5,98c-1.6-2.3-3.3-4.5-4.9-6.8l-27.9-7.6
	l10.2-11.2l22.6,4.2l26.2,0.4c-4.3-4.5-8.5-9.1-12.8-13.6l34.7-7.5 M237.9,107.4l-18-9.3 M271.9,97.1c-0.2-4.2-0.5-8.3-0.7-12.4
	l-30.8,11.2l-5.7-18.8l27.9-7.2c2.9,4.9,5.7,9.8,8.6,14.7l22.7-12l0.6,8.9c6.4-3.4,12.9-6.7,19.3-10.1 M271.9,97.1l22.5-15.6l-5,8
	c6.4-4.2,12.7-8.4,19.1-12.6l-8,2.1l6.7-7.8c6.7,1.2,13.5,2.4,20.2,3.6l6.2,2.7c3.5,6.2,6.9,12.4,10.4,18.5l-4.6,9.3
	c1.8,7.3,3.5,14.5,5.2,21.7l-9.4,17c3,7,5.9,14,8.9,21.1c-2.3,5.4-4.7,10.8-7,16.3c-5.3-3.7-10.5-7.4-15.8-11.1l-13,20.1l16,14.1
	l-16.7,25.5c4.7,5.1,9.3,10.3,14,15.4 M271.9,97.1l-12.4,6.3l30-13.8c-4.6,0.4-9.2,0.7-13.8,1.1l-13.4-3.5
	c-11.2,0.5-22.4,1.1-33.6,1.6l12.8,5.7l-35.3-6 M313.8,71.4l8.2,0.1c5.3,1.3,10.6,2.7,15.9,4c0.7,1.8,1.4,3.6,2,5.4
	c3.5,6,6.9,12,10.4,17.9c0,2.8,0,5.6,0,8.4l-0.1,29.7l-1,9.2l5.9,32 M313.8,71.4l22.7-3.6c0.5,2.6,1,5.2,1.4,7.8
	c4.3,4.4,8.5,8.7,12.8,13l-0.4,10.3l3.2,26.1l-3.4,12.1l3.6,32.2c0.4,3,0.9,6,1.3,9 M313.8,71.4c-1-1.9-1.9-3.8-2.8-5.7l-17.2,6.9
	l-4.1-10.1l-27.1,7.4c-2-4.6-4-9.3-6.1-13.9 M355.1,178.2l0.2,7.7c4.7,6.7,9.4,13.3,14.1,20 M355.1,178.2c4.5,6.3,9.1,12.7,13.6,19
	l0.7,8.7 M369.4,205.9l-4.7,8.8c6.2,4.4,12.4,8.7,18.6,13.1l6.5-9.4C383,214.2,376.2,210.1,369.4,205.9z M256.5,56.1l34.8-4.1
	 M76,319.2l6.5,14.9l12.6-8.5l13.2,10.6l17.7-12.1 M76,319.2l9.4-5.1l9.6,11.6l14.9-9.6c5.3,2.7,10.7,5.4,16,8.1 M76,319.2
	c0.3-6.4,0.6-12.8,0.9-19.2l-7-9.9l7-20l-1.4-8.2 M125.9,324.1l17.4,6.8l17.9-12.4c6.3,4,12.6,8,18.8,12l19.4-2.7l16.6,20.5
	l12.5-4.2c5.9,4.4,11.7,8.9,17.6,13.3l14.7-14.1c4.6-4.1,9.2-8.1,13.8-12.1l13.7-13.8 M125.9,324.1l17.9-11.9 M288.3,317.4
	l15.8-17.1c3.8,2,7.7,4,11.5,6c1.4-7.6,2.7-15.1,4.1-22.6c3.9-0.5,7.8-1.1,11.7-1.6l4.3-21.1l17.8,1.6l14.2-16.6
	c-5.5-3.5-11-7.1-16.5-10.6l13.6-20.7c-4.8-7.1-9.6-14.2-14.4-21.3l5.1-7.5c-2.7-10.6-5.3-21.2-8-31.8l1.8-7.9
	c-0.2-9.9-0.4-19.7-0.5-29.6l1.6-9.3c-2.4-6.7-4.8-13.4-7.2-20.1c-1-2.1-2.1-4.2-3.1-6.2c-5.7-2.7-11.4-5.4-17.1-8.1
	c-0.3-0.4-0.5-0.8-0.8-1.3l-13.5,5.4l5.3-5.5 M288.3,317.4c-4.6-3.2-9.2-6.4-13.8-9.5l13.8-18 M288.3,317.4
	c5.6,3.3,11.3,6.6,16.9,9.9c1.8,2.4,3.7,4.9,5.4,7.3 M219.9,98.1l39.6,5.3l-18.1-8.9c11.4-1.3,22.8-2.5,34.3-3.8l24.9-11.6
	c7.4-2.1,14.9-4.2,22.3-6.2c1.5,0.7,3.1,1.3,4.6,2c5.2,4.1,10.4,8.2,15.7,12.4c0.3,3,0.6,5.9,0.9,8.9c1.6,6.8,3.2,13.7,4.7,20.5
	l-4.1,10.5c1,9,1.9,18,2.8,27l-3.3,11.1c2,9.4,4.1,18.8,6.1,28.2l-12.7,27.2c4.5,4.9,9,9.9,13.5,14.8l-15.5,25.5l-15.9,22.7
	l-15.6,16.7c-5.3-3.5-10.6-6.9-15.9-10.4 M219.9,98.1c-8.8-2.7-17.6-5.4-26.4-8.1l-10,0.6l-22.9-0.2 M288.2,289.9l17.4-21.7
	c-4.7-4.6-9.4-9.3-14.1-13.9 M288.2,289.9c-4.8-3.9-9.6-7.8-14.4-11.7l17.7-24 M187.1,49.5l-20.7,1.9c-6.9,2.5-13.9,5-20.9,7.5
	c-1,1.9-2,3.7-3.1,5.6c0.7,2.9,1.5,5.8,2.2,8.7l-16.5,13 M128.2,86.2l2.9,9.9 M128.2,86.2l-13.9,15.1c1.3,2.8,2.6,5.6,3.9,8.4
	l-1.2,12.8 M131.1,96.1c-0.2,4.3-0.3,8.6-0.5,12.8l-2.8,5.6l-13.4,15l-3.3,6.8c-2.8,5.8-5.6,11.6-8.4,17.4l-2.4,7.5 M131.1,96.1
	l14.8-11.5l24-9.2l15.9-2.9l4.6-11.5c-7.7,1.3-15.5,2.7-23.2,4l-22.6,8.4l1.3,11.3c0.7,3.7,1.3,7.5,2,11.2 M131.1,96.1l-12.9,13.6
	l-14.7,22.2l-12.4,20.8l2.8,11.3l10.1-21.8l13-19.7 M100.3,161.3l-1.8,27.8c0.1,3.2,0.2,6.5,0.3,9.7l-1.9,8.8
	c-2,7.8-3.9,15.6-5.9,23.4l-5,6.1l2.1,10.4L76.8,270c2.4,4.9,4.8,9.7,7.2,14.6l12.3-17.2c4.8,7.3,9.5,14.6,14.3,21.9l16.4-14.5
	c5.8,4.6,11.6,9.2,17.4,13.8l18.9-12.2c7.5,5.8,15,11.5,22.5,17.2l14-9.3 M100.3,161.3l8.4-17.6l2.3-7.4l13-16.8l3.7-5l15.9-13.6
	l4.2-5 M100.3,161.3l0.2,9.8c1.1,3.9,2.2,7.8,3.4,11.7L97,207.6l-1.3,11.3 M199.8,284.4c6,6.8,11.9,13.7,17.9,20.6
	c4-3.8,8-7.6,11.9-11.4c5.2,5.8,10.3,11.5,15.5,17.3 M199.8,284.4l12.5-12.6l17.3-14.6c-2.8-5.5-5.6-11-8.4-16.5l18.9-14.4
	c-2.6-6.2-5.2-12.4-7.8-18.6L214.3,181l-18.2,17.1c-6.8-7.4-13.7-14.9-20.5-22.3c-5.8,7.8-11.5,15.6-17.3,23.4
	c6.1,5.7,12.2,11.4,18.3,17 M199.8,284.4l-20.5-21.3l-16.1,13.2c-6.5-5.4-12.9-10.8-19.4-16.1c6.5-6.7,12.9-13.3,19.4-20
	c5.3,7.7,10.7,15.3,16,22.9l20.3-9.5c4.2,6,8.5,12.1,12.7,18.1l17.4,21.8l15-14.7 M245.2,310.9l15.4-15.3c4.6,4.1,9.3,8.2,13.9,12.3
	l-13.9,15.3C255.5,319,250.3,314.9,245.2,310.9z M245.2,310.9L231,321.5l-13.3-16.6c-5.3,1.7-10.6,3.5-15.9,5.2l-16-16.5l-20.8,6.9
	c-6.9-4-13.8-8-20.7-12L126.1,303l-15.5-13.7l-14.3,14.3c-4.1-6.3-8.2-12.6-12.3-18.9L76.8,300c2.9,4.7,5.7,9.4,8.6,14.1l10.9-10.5
	l13.6,12.5l16.3-13l17.6,9.2 M143.8,312.2l21.4-11.7c5.9,3.7,11.7,7.4,17.6,11.2l19.2-1.6l12.4,17.3 M143.8,312.2
	c5.8,2.1,11.6,4.2,17.4,6.4l21.5-6.8l16.7,16.1c5-0.1,10-0.3,14.9-0.4 M214.3,327.4c5.6-2,11.2-3.9,16.7-5.9
	c4.8,4.2,9.6,8.4,14.4,12.6 M214.3,327.4l14.1,16.7c5.7-3.3,11.4-6.7,17-10 M245.4,334.1l15.4,9.1c5.8,5,11.5,10.1,17.3,15.1
	l14.4-14.5c-6-4.2-11.9-8.5-17.9-12.7c-4.7-2.7-9.3-5.4-14-8L245.4,334.1z M75.5,261.8l7.4-3.1l8.2-27.7l10.5-1.6l1.9-8.6l-4.9-31.8
	l-1.9-7.6l6.1-27.8l1.7-6.3l10-17.9l2.6-7.1 M75.5,261.8l10.6-24.8l9.6-18.2 M75.5,261.8l-7.8,20.8c-1.7,9.3-3.4,18.6-5.1,28
	l2.7,28.7c1.5,7.6,2.9,15.1,4.4,22.7 M117,122.4l13.7-13.6l17.3-13.1l27.8-12.2 M335.6,260.9l-14.1-15.5 M321.5,245.4l16.1-24.8
	c-4.5-5.4-8.9-10.7-13.4-16.1l12.9-23.1c4.4,4,8.8,7.9,13.2,11.9 M321.5,245.4l-15.8,22.7c4.6,5.2,9.3,10.3,14,15.5 M206,88.4
	c4.6,3.2,9.2,6.5,13.8,9.7L208.5,98c-8.3-2.5-16.6-5-24.9-7.5c-2.6-2.3-5.2-4.6-7.8-6.9c-1.9-2.8-3.8-5.5-5.7-8.3
	c-0.9-3.5-1.8-7-2.7-10.5c-1.6-2.7-3.2-5.4-4.8-8.1l25.6-3.8l2.4,7.8l31.4,2.6 M206,88.4l-27.7,2.6l-19.8,7.5 M291.6,254.2
	l15.9-24.1c-5.3-5-10.5-10-15.7-15.1 M291.6,254.2c-5.2-4.5-10.5-9.1-15.7-13.6l15.8-25.6 M291.8,215l16.5-24.6
	c-5.3-4.9-10.7-9.8-16-14.7l-18.3,25.1C279.9,205.5,285.8,210.3,291.8,215z M259.5,263.8c4.8,4.8,9.6,9.6,14.4,14.4l-13.3,17.4
	c-5.3-5.6-10.6-11.2-15.8-16.7 M259.5,263.8l16.4-23.2L262.3,226l11.6-25.2c-4.1-8.2-8.2-16.5-12.4-24.7L246.2,191l-13.8,16.8
	l-17.1,17.3 M259.5,263.8l-14.7,15 M259.5,263.8l-12.8-19.9l-17.1,13.4c5.1,7.1,10.1,14.3,15.1,21.6 M215.3,225.1l-24.7,11
	 M215.3,225.1l6,15.6l-21.6,12.9c-3.1-5.9-6.1-11.7-9.2-17.6 M215.3,225.1l-19.2-27l-19.5,18.2 M190.6,236.1l-27.2,4.1
	c4.4-8,8.8-16,13.2-24 M190.6,236.1c-4.7-6.6-9.3-13.3-14-19.9 M330.9,52.3L317,37.9 M335.2,144.2c-4.2-2.8-8.3-5.7-12.5-8.6
	l-16.4,21.8 M306.3,157.4c5,4.3,10,8.6,14.9,13l13.9-26.2l-4.1-23.3l8.2-15.5c-2.6-6.9-5.2-13.8-7.8-20.7l2.1-7.1
	c-5.1-2.6-10.2-5.2-15.3-7.7c-3.7,0.5-7.4,1-11.1,1.4l-18.7,7 M306.3,157.4l-14.1,18.4l-15.8-15.9c4.7-5.9,9.5-11.9,14.2-17.8
	l-14.6-17.4l17.5-21.3c5,5.8,10,11.7,15,17.5c4.1-6,8.3-12.1,12.4-18.1c-4.2-4.6-8.3-9.2-12.4-13.9l9.7-14.6l-19.9,2.2 M306.3,157.4
	c-5.2-5.1-10.5-10.3-15.7-15.4l17.9-21.2c4.7,4.9,9.4,9.8,14.2,14.8l8.4-14.7c-3.4-6.1-6.8-12.1-10.1-18.2l10.5-18
	c-4.4-3.5-8.9-6.9-13.3-10.4c0.1-1.5,0.1-2.9,0.1-4.4L298,71.4 M288.5,78.2c4,0.3,8,0.5,12,0.8 M288.5,78.2l-26.4,8.9l-4.9,1.1
	L280,77.4 M288.5,78.2c-2.9-0.3-5.7-0.6-8.6-0.9 M307.2,71.3c-3.1,0-6.1,0.1-9.2,0.1 M298,71.4c0.1,1.7,0.1,3.4,0.2,5.1 M298,71.4
	l-18.1,6 M298.3,76.5l10.3,12.4c-5,4.8-10,9.7-15,14.5c-5.1-5.2-10.2-10.3-15.3-15.5 M298.3,76.5l-20,11.3 M280,77.4l-1.7,10.5
	l-15.4,20.3c4.4,5.5,8.8,11,13.2,16.5l-13.8,19.7c4.7,5.2,9.5,10.4,14.2,15.6l-14.9,16.2c-4.3-6.5-8.6-12.9-12.8-19.4L231,166.8
	c-5.5,4.7-11.1,9.4-16.6,14.1c-6.6-7.5-13.2-15-19.8-22.6c-6.3,5.8-12.7,11.5-19,17.3c-5.7-5.2-11.4-10.3-17-15.5l-14.7,22.6
	c4.8,5.4,9.6,10.8,14.5,16.2L142,222.8c7.1,5.8,14.3,11.6,21.4,17.4 M274,200.8l-16.7,11.9 M257.3,212.7l-17.1,13.6l6.6,17.5
	l15.7-17.8C260.7,221.6,259,217.2,257.3,212.7z M257.3,212.7l-11-21.7c-5.1-8-10.2-16.1-15.3-24.1c-5.2-7-10.4-14-15.7-20.9
	l-20.7,12.4l-18.8-18.7l-17.3,20.6l-11-14.3 M147.4,146l13.2-21.1c5.1,4.9,10.1,9.8,15.2,14.8l19.2-13.8c6.8,6.7,13.5,13.4,20.3,20
	l17.1-10.2c5.5,7,10.9,14,16.4,20.9l13.5-12.4c-5.6-6.6-11.2-13.3-16.8-19.9l-13,11.4c-6.4-6.9-12.9-13.9-19.3-20.8
	c-6,3.7-12.1,7.3-18.1,11c-4.2-5.6-8.3-11.2-12.5-16.7l-2.7-12l-1.3-6.1l-5.5-2l-12.3,1.3 M147.4,146l-12.5,16.2 M147.4,146
	l-2.8-10.3l16-10.8 M160.6,90.3l-12.7,5.5 M160.6,90.3l-16.9,10.5l-2.6,3.6l-17.1,15.1l-2.5,6.9l-12.8,17.3c0.3,3.1,0.6,6.3,1,9.4
	l-9.2,18l-1.6,27.7l2.7,30.6l-4.4,31.3l-7.4,19 M95.7,218.9c1.4,4.2,2.8,8.4,4.2,12.6l14.3-14.9 M95.7,218.9l12.5-21.6 M278.3,87.8
	l-20.2,9.3l-26.8,9.2c-6.1,2.9-12.1,5.8-18.2,8.7c-2.7-5-5.4-9.9-8.1-14.9l-22.5,9.1l-21.8,15.8c-0.5-5.7-1-11.4-1.5-17.1L140,121.3
	c1.5,4.8,3.1,9.6,4.6,14.4c-5,4.6-10.1,9.2-15.1,13.8c1.8,4.2,3.6,8.5,5.4,12.7 M111,252.9l15.8-13.2c5.7,6.9,11.4,13.7,17.2,20.6
	l-16.8,14.5C121.8,267.5,116.4,260.2,111,252.9z M111,252.9c-4.9,4.9-9.8,9.7-14.7,14.6l-8.1-19.9l11.7-16
	C103.6,238.6,107.3,245.7,111,252.9z M158.6,98.5c-6.7,4-13.3,8-20,12c0.5,3.6,1,7.2,1.4,10.8l-16.7,15.6l6.2,12.6l-13.4,14.1
	 M158.6,98.5l0.9-5.1l-18.2,10.9l-2.7,6.1l-17,15.8l1.8,10.5l-13.6,16.2c2.1,3.5,4.2,6.9,6.4,10.4 M158.6,98.5
	c0.2,3.1,0.4,6.2,0.5,9.3l20.6-10.7l24-6.6c0.5,3.1,0.9,6.3,1.3,9.4c7.2-1.7,14.4-3.4,21.7-5.1c1.6,3.8,3.1,7.5,4.6,11.3
	c4.7,6,9.4,12,14.2,18.1l17.4-16.2l-4.8-11l-0.7-8.8L226.6,95l1.9-6.2l-24.9,1.9l2.4-2.2L193.5,90c-6.9-0.3-13.8-0.6-20.6-0.9
	l-13.4,4.4c0.4-1.1,0.8-2.1,1.2-3.1 M116.1,163.5c2.3,4.1,4.5,8.1,6.7,12.2 M116.1,163.5l-12.3,19.2l4.3,14.6 M122.9,175.7
	l-14.7,21.5 M122.9,175.7l12-13.6 M122.9,175.7l6.6,24.3 M108.2,197.3c2,6.4,4,12.8,6,19.3 M114.2,216.5l15.2-16.4 M114.2,216.5
	l12.6,23.1l15.2-16.9l-12.5-22.7 M129.4,200.1l14.3-17.1c-2.9-6.9-5.9-13.8-8.9-20.8"/>
</svg>
