<?xml version="1.0" encoding="utf-8"?>
<!-- Generator: Adobe Illustrator 26.0.2, SVG Export Plug-In . SVG Version: 6.00 Build 0)  -->
<svg version="1.1" id="Layer_1" xmlns="http://www.w3.org/2000/svg" xmlns:xlink="http://www.w3.org/1999/xlink" x="0px" y="0px"
	 viewBox="0 0 177.1 64.9" style="enable-background:new 0 0 177.1 64.9;" xml:space="preserve">
<style type="text/css">
	.st0{fill-rule:evenodd;clip-rule:evenodd;fill:#FFFFFF;filter:url(#Adobe_OpacityMaskFilter);}
	.st1{mask:url(#path-1-inside-1_148_3531_00000171721671302725586160000016836291532970804643_);fill:#626262;}
</style>
<defs>
	<filter id="Adobe_OpacityMaskFilter" filterUnits="userSpaceOnUse" x="2.6" y="3.5" width="172" height="58">
		<feColorMatrix  type="matrix" values="1 0 0 0 0  0 1 0 0 0  0 0 1 0 0  0 0 0 1 0"/>
	</filter>
</defs>
<mask maskUnits="userSpaceOnUse" x="2.6" y="3.5" width="172" height="58" id="path-1-inside-1_148_3531_00000171721671302725586160000016836291532970804643_">
	<path class="st0" d="M77,12.5c0-4.4-3.6-8-8-8h-9.2c-4.4,0-8,3.6-8,8v2.4c0,4.4-3.6,8-8,8h-7.1c-4.4,0-8-3.6-8-8v-2.4
		c0-4.4-3.6-8-8-8h-9.2c-4.4,0-8,3.6-8,8v3.2c0,4.4,3.6,8,8,8h8.1c4.4,0,8,3.6,8,8v2.4c0,4.4,3.6,8,8,8h9.2c4.4,0,8-3.6,8-8v-2.4
		c0-4.4,3.6-8,8-8H68c4.4,0,8,3.6,8,8v2.4c0,4.4,3.6,8,8,8h8.1c4.4,0,8,3.6,8,8v2.4c0,4.4,3.6,8,8,8h9.2c4.4,0,8-3.6,8-8v-2.4
		c0-4.4,3.6-8,8-8h8.1c4.4,0,8-3.6,8-8v-2.4c0-4.4,3.6-8,8-8h8.1c4.4,0,8-3.6,8-8v-3.2c0-4.4-3.6-8-8-8h-9.2c-4.4,0-8,3.6-8,8v2.4
		c0,4.4-3.6,8-8,8h-8.1c-4.4,0-8,3.6-8,8v2.4c0,4.4-3.6,8-8,8h-7.1c-4.4,0-8-3.6-8-8v-2.4c0-4.4-3.6-8-8-8H85c-4.4,0-8-3.6-8-8V12.5
		z"/>
</mask>
<path class="st1" d="M59.8,5.5H69v-2h-9.2V5.5z M52.8,14.9v-2.4h-2v2.4H52.8z M36.8,23.9h7.1v-2h-7.1V23.9z M27.8,12.5v2.4h2v-2.4
	H27.8z M11.6,5.5h9.2v-2h-9.2V5.5z M4.6,15.7v-3.2h-2v3.2H4.6z M19.7,22.7h-8.1v2h8.1V22.7z M28.7,34.1v-2.4h-2v2.4H28.7z
	 M44.9,41.1h-9.2v2h9.2V41.1z M51.9,31.7v2.4h2v-2.4H51.9z M68,22.7h-7.1v2H68V22.7z M77,34.1v-2.4h-2v2.4H77z M92.1,41.1H84v2h8.1
	V41.1z M101.1,52.5v-2.4h-2v2.4H101.1z M117.3,59.5h-9.2v2h9.2V59.5z M124.3,50.1v2.4h2v-2.4H124.3z M141.4,41.1h-8.1v2h8.1V41.1z
	 M148.4,31.7v2.4h2v-2.4H148.4z M165.6,22.7h-8.1v2h8.1V22.7z M172.6,12.5v3.2h2v-3.2H172.6z M156.4,5.5h9.2v-2h-9.2V5.5z
	 M149.4,14.9v-2.4h-2v2.4H149.4z M132.3,23.9h8.1v-2h-8.1V23.9z M125.3,33.3v-2.4h-2v2.4H125.3z M109.2,42.3h7.1v-2h-7.1V42.3z
	 M100.2,30.9v2.4h2v-2.4H100.2z M85,23.9h8.1v-2H85V23.9z M76,12.5v2.4h2v-2.4H76z M85,21.9c-3.9,0-7-3.1-7-7h-2c0,5,4,9,9,9V21.9z
	 M102.2,30.9c0-5-4-9-9-9v2c3.9,0,7,3.1,7,7H102.2z M109.2,40.3c-3.9,0-7-3.1-7-7h-2c0,5,4,9,9,9V40.3z M123.3,33.3c0,3.9-3.1,7-7,7
	v2c5,0,9-4,9-9H123.3z M132.3,21.9c-5,0-9,4-9,9h2c0-3.9,3.1-7,7-7V21.9z M147.4,14.9c0,3.9-3.1,7-7,7v2c5,0,9-4,9-9H147.4z
	 M156.4,3.5c-5,0-9,4-9,9h2c0-3.9,3.1-7,7-7V3.5z M174.6,12.5c0-5-4-9-9-9v2c3.9,0,7,3.1,7,7H174.6z M165.6,24.7c5,0,9-4,9-9h-2
	c0,3.9-3.1,7-7,7V24.7z M150.4,31.7c0-3.9,3.1-7,7-7v-2c-5,0-9,4-9,9H150.4z M141.4,43.1c5,0,9-4,9-9h-2c0,3.9-3.1,7-7,7V43.1z
	 M126.3,50.1c0-3.9,3.1-7,7-7v-2c-5,0-9,4-9,9H126.3z M117.3,61.5c5,0,9-4,9-9h-2c0,3.9-3.1,7-7,7V61.5z M99.1,52.5c0,5,4,9,9,9v-2
	c-3.9,0-7-3.1-7-7H99.1z M92.1,43.1c3.9,0,7,3.1,7,7h2c0-5-4-9-9-9V43.1z M75,34.1c0,5,4,9,9,9v-2c-3.9,0-7-3.1-7-7H75z M68,24.7
	c3.9,0,7,3.1,7,7h2c0-5-4-9-9-9V24.7z M53.9,31.7c0-3.9,3.1-7,7-7v-2c-5,0-9,4-9,9H53.9z M44.9,43.1c5,0,9-4,9-9h-2c0,3.9-3.1,7-7,7
	V43.1z M26.7,34.1c0,5,4,9,9,9v-2c-3.9,0-7-3.1-7-7H26.7z M19.7,24.7c3.9,0,7,3.1,7,7h2c0-5-4-9-9-9V24.7z M2.6,15.7c0,5,4,9,9,9v-2
	c-3.9,0-7-3.1-7-7H2.6z M11.6,3.5c-5,0-9,4-9,9h2c0-3.9,3.1-7,7-7V3.5z M29.8,12.5c0-5-4-9-9-9v2c3.9,0,7,3.1,7,7H29.8z M36.8,21.9
	c-3.9,0-7-3.1-7-7h-2c0,5,4,9,9,9V21.9z M50.8,14.9c0,3.9-3.1,7-7,7v2c5,0,9-4,9-9H50.8z M69,5.5c3.9,0,7,3.1,7,7h2c0-5-4-9-9-9V5.5
	z M59.8,3.5c-5,0-9,4-9,9h2c0-3.9,3.1-7,7-7V3.5z"/>
</svg>
